<svg width="289" height="120" viewBox="0 0 289 120" fill="none" xmlns="http://www.w3.org/2000/svg">
<path d="M114.952 61.2805C114.906 56.4509 118.898 54.1305 119.077 54.02C116.83 50.7373 113.341 50.2862 112.097 50.2355C109.128 49.9317 106.301 51.985 104.791 51.985C103.281 51.985 100.956 50.277 98.4927 50.3276C95.2515 50.3736 92.2635 52.2106 90.5923 55.1111C87.2314 60.9398 89.7359 69.5953 93.0186 74.3328C94.6254 76.6486 96.5314 79.259 99.0452 79.1623C101.467 79.0657 102.378 77.597 105.297 77.597C108.216 77.597 109.04 79.1623 111.596 79.1163C114.197 79.0657 115.845 76.7499 117.438 74.4248C119.27 71.7315 120.03 69.1303 120.076 68.9921C120.016 68.9691 115.007 67.0493 114.952 61.2805Z" fill="#EBEBEB"/>
<path d="M110.152 47.0954C111.487 45.4794 112.385 43.2373 112.141 40.9998C110.221 41.078 107.896 42.2797 106.519 43.8957C105.285 45.3229 104.203 47.6065 104.498 49.798C106.63 49.9637 108.821 48.7068 110.152 47.0954ZM131.791 66.027L129.581 72.7258H126.74L133.973 51.437H137.288L144.548 72.7258H141.611L139.336 66.027H131.791ZM138.77 63.8769L136.689 57.749C136.215 56.3586 135.902 55.0972 135.584 53.8633H135.524C135.207 55.1248 134.861 56.4185 134.452 57.7168L132.371 63.8723L138.77 63.8769ZM146.703 62.4267C146.703 60.47 146.643 58.8862 146.574 57.436H149.069L149.198 60.0602H149.258C150.395 58.1956 152.195 57.0907 154.691 57.0907C158.388 57.0907 161.164 60.2168 161.164 64.8622C161.164 70.3594 157.817 73.0711 154.217 73.0711C152.195 73.0711 150.427 72.1871 149.511 70.6724H149.451V78.978H146.703V62.4267ZM149.447 66.5012C149.447 66.9156 149.507 67.2885 149.576 67.6384C150.082 69.5629 151.753 70.8934 153.747 70.8934C156.684 70.8934 158.392 68.4947 158.392 64.9865C158.392 61.9203 156.781 59.3052 153.844 59.3052C151.951 59.3052 150.183 60.6634 149.64 62.749C149.544 63.0943 149.451 63.5086 149.451 63.8862L149.447 66.5012ZM164.037 62.4267C164.037 60.47 163.977 58.8862 163.908 57.436H166.403L166.532 60.0602H166.592C167.729 58.1956 169.529 57.0907 172.025 57.0907C175.722 57.0907 178.498 60.2168 178.498 64.8622C178.498 70.3594 175.151 73.0711 171.551 73.0711C169.529 73.0711 167.761 72.1871 166.845 70.6724H166.785V78.978H164.037V62.4267ZM166.785 66.5012C166.785 66.9156 166.845 67.2885 166.914 67.6384C167.421 69.5629 169.092 70.8934 171.086 70.8934C174.023 70.8934 175.731 68.4947 175.731 64.9865C175.731 61.9203 174.12 59.3052 171.182 59.3052C169.29 59.3052 167.522 60.6634 166.979 62.749C166.882 63.0943 166.79 63.5086 166.79 63.8862L166.785 66.5012ZM181.375 50.2998H184.156V72.7212H181.375V50.2998ZM189.745 65.585C189.805 69.3419 192.209 70.8934 194.985 70.8934C196.974 70.8934 198.175 70.5481 199.216 70.1061L199.69 72.0951C198.714 72.537 197.038 73.0435 194.607 73.0435C189.902 73.0435 187.089 69.9496 187.089 65.3364C187.089 60.7232 189.805 57.0907 194.257 57.0907C199.248 57.0907 200.574 61.4783 200.574 64.2913C200.574 64.8622 200.514 65.2996 200.477 65.585H189.745ZM197.895 63.5961C197.927 61.8282 197.167 59.0796 194.041 59.0796C191.228 59.0796 189.999 61.6716 189.778 63.5961H197.895Z" fill="#EBEBEB"/>
</svg>
