<svg width="289" height="120" viewBox="0 0 289 120" fill="none" xmlns="http://www.w3.org/2000/svg">
<path d="M179.852 38.5562H176.221V63.3179H179.852V38.5562Z" fill="#EBEBEB"/>
<path d="M185.996 58.8452C184.637 58.8452 183.543 59.9423 183.543 61.3045C183.543 62.6668 184.637 63.7638 185.996 63.7638C187.355 63.7638 188.45 62.6668 188.45 61.3045C188.45 59.9423 187.355 58.8452 185.996 58.8452Z" fill="#EBEBEB"/>
<path d="M195.545 54.6987C195.545 51.7451 197.312 49.2135 200.74 49.2135H202.904V45.7656H200.74C198.058 45.7656 196.831 46.6216 195.581 48.0441L195.557 48.0803V45.7656H191.961V63.3062H195.545C195.545 63.2941 195.545 55.8921 195.545 54.6987Z" fill="#EBEBEB"/>
<path d="M172.274 45.7656H168.643V63.3062H172.274V45.7656Z" fill="#EBEBEB"/>
<path d="M170.461 42.8598C171.82 42.8598 172.914 41.7627 172.914 40.4005C172.914 39.0382 171.808 37.9412 170.461 37.9412C169.102 37.9412 168.008 39.0382 168.008 40.4005C168.008 41.7627 169.114 42.8598 170.461 42.8598Z" fill="#EBEBEB"/>
<path d="M161.143 47.5378C159.748 46.1152 157.608 45.3196 155.479 45.3196C150.404 45.3196 146.279 49.4546 146.279 54.5419C146.279 59.6293 150.404 63.7643 155.479 63.7643C157.608 63.7643 159.856 62.8481 161.143 61.4015V63.3183H164.715V45.7656H161.143V47.5378ZM155.599 60.0995C152.473 60.0995 150.091 57.6884 150.091 54.5419C150.091 51.3955 152.473 49.0085 155.599 49.0085C158.726 49.0085 161.191 51.2508 161.191 54.5419C161.191 57.8331 158.726 60.0995 155.599 60.0995Z" fill="#EBEBEB"/>
<path d="M212.958 63.7643C214.582 63.7643 216.65 62.8843 217.949 61.3894C217.961 62.0524 217.949 62.6552 217.949 63.3062H221.52V55.651V45.7656H217.937V55.3979C217.937 57.8933 216.037 60.22 213.187 60.22C210.697 60.22 208.929 58.4117 208.929 55.8198V45.7777H205.346V56.1212C205.358 60.7505 207.847 63.7643 212.958 63.7643Z" fill="#EBEBEB"/>
<path d="M135.79 45.3196C133.409 45.3196 131.076 46.4046 129.657 48.1164C128.358 46.3925 126.47 45.3196 123.933 45.3196C121.864 45.3196 120.385 46.2478 119.591 46.9953V45.7656H116.02V63.3062H119.591V53.0471C119.591 50.7566 121.455 48.9 123.728 48.9C126.001 48.9 127.865 50.7686 127.865 53.0471V63.3062H131.437V53.0471C131.437 50.7566 133.301 48.9 135.574 48.9C137.846 48.9 139.71 50.7686 139.71 53.0471V63.3062H143.282V53.0471C143.306 48.3455 140.264 45.3196 135.79 45.3196Z" fill="#EBEBEB"/>
<path d="M182.955 71.4192L182.931 71.4433V70.0811H181.885H180.827H180.646V80.3763H180.827H182.931C182.931 80.3643 182.931 76.2534 182.931 75.5542C182.931 73.8182 183.966 72.3354 185.974 72.3354H187.237V70.0811H185.974C184.411 70.0811 183.689 70.5874 182.955 71.4192Z" fill="#EBEBEB"/>
<path d="M207.526 75.7222C207.526 77.3737 206.203 78.3623 204.917 78.3623C203.558 78.3623 202.596 77.3737 202.596 75.9633V70.0923H200.299V76.132C200.299 78.9892 201.934 80.6408 204.772 80.6408C205.698 80.6408 206.793 80.1706 207.514 79.4593C207.514 79.6401 207.514 79.821 207.514 80.0018V80.3876H209.799V70.0923H207.502L207.526 75.7222Z" fill="#EBEBEB"/>
<path d="M193.188 69.8271C190.218 69.8271 187.801 72.2503 187.801 75.228C187.801 78.2056 190.218 80.6288 193.188 80.6288C196.159 80.6288 198.576 78.2056 198.576 75.228C198.576 72.2503 196.171 69.8271 193.188 69.8271ZM193.188 78.3382C191.481 78.3382 190.086 76.9398 190.086 75.228C190.086 73.5161 191.481 72.1177 193.188 72.1177C194.896 72.1177 196.291 73.5161 196.291 75.228C196.291 76.9398 194.908 78.3382 193.188 78.3382Z" fill="#EBEBEB"/>
<path d="M217.505 69.8271C216.327 69.8271 215.184 70.237 214.379 70.9362V70.0803H212.094V83.9199H214.379V79.4594C215.148 80.1827 216.339 80.6408 217.505 80.6408C220.476 80.6408 222.893 78.2177 222.893 75.24C222.893 72.2503 220.476 69.8271 217.505 69.8271ZM217.433 78.29C215.641 78.29 214.343 77.0001 214.343 75.228C214.343 73.4558 215.641 72.1779 217.433 72.1779C219.165 72.1779 220.476 73.492 220.476 75.228C220.476 76.976 219.165 78.29 217.433 78.29Z" fill="#EBEBEB"/>
<path d="M176.089 70.9362C175.283 70.237 174.14 69.8271 172.962 69.8271C169.991 69.8271 167.574 72.2503 167.574 75.228C167.574 78.2056 169.991 80.6288 172.962 80.6288C174.128 80.6288 175.319 80.1707 176.089 79.4473V79.6523C176.052 81.762 175.03 82.8349 173.034 82.8349H173.01C171.879 82.8349 170.881 82.4009 169.955 81.4968L169.871 81.4124L168.212 83.0037L168.284 83.0881C169.138 84.0887 170.869 85.2339 172.95 85.2339C172.986 85.2339 173.022 85.2339 173.058 85.2339C175.006 85.1978 178.277 84.4383 178.373 79.7367V70.0683H176.089V70.9362ZM173.034 78.29C171.302 78.29 169.991 76.976 169.991 75.228C169.991 73.492 171.302 72.1779 173.034 72.1779C174.826 72.1779 176.125 73.4558 176.125 75.228C176.113 77.0001 174.826 78.29 173.034 78.29Z" fill="#EBEBEB"/>
<path d="M91.9657 54.2283C91.9657 57.423 89.3801 60.0149 86.1932 60.0149C83.0064 60.0149 80.4208 57.423 80.4208 54.2283C80.4208 51.0337 83.0064 48.4417 86.1932 48.4417C89.3801 48.4417 91.9657 51.0457 91.9657 54.2283ZM86.1932 35C75.6105 35 67 43.6317 67 54.2404C67 64.8491 75.6105 73.4687 86.1932 73.4687C90.0656 73.4687 93.8056 72.3114 97.0045 70.1173L97.0646 70.0812L94.4791 67.0673L94.431 67.0914C91.9657 68.6707 89.1276 69.5146 86.1932 69.5146C77.7872 69.5146 70.9445 62.655 70.9445 54.2283C70.9445 45.8016 77.7872 38.9421 86.1932 38.9421C94.5993 38.9421 101.442 45.8016 101.442 54.2283C101.442 55.3254 101.322 56.4224 101.081 57.5195C100.6 59.5086 99.2172 60.1114 98.171 60.027C97.1247 59.9426 95.8981 59.1951 95.8861 57.3627V54.2283C95.8861 48.8637 91.5327 44.4996 86.1812 44.4996C80.8297 44.4996 76.4764 48.8637 76.4764 54.2283C76.4764 59.593 80.8297 63.957 86.1812 63.957C88.7788 63.957 91.2201 62.9323 93.06 61.0878C94.1303 62.7515 95.8741 63.8003 97.8583 63.957C98.0267 63.9691 98.2071 63.9811 98.3754 63.9811C99.7704 63.9811 101.153 63.511 102.272 62.6671C103.426 61.7871 104.28 60.5212 104.749 59.0023C104.821 58.7612 104.966 58.1946 104.966 58.1946V58.1704C105.242 56.9528 105.374 55.7353 105.374 54.2283C105.386 43.6317 96.776 35 86.1932 35Z" fill="#898989"/>
</svg>
