<svg width="289" height="120" viewBox="0 0 289 120" fill="none" xmlns="http://www.w3.org/2000/svg">
<path fill-rule="evenodd" clip-rule="evenodd" d="M99.4676 42.5146C103.666 42.5146 107.518 43.9943 110.529 46.4628L107.521 48.8683C105.259 47.2262 102.476 46.2584 99.4658 46.2584C91.8841 46.2584 85.74 52.4042 85.74 59.9842C85.74 67.566 91.8858 73.71 99.4658 73.71C107.048 73.71 113.192 67.5642 113.192 59.9842C113.192 59.8095 113.188 59.6348 113.183 59.4601L116.672 56.941C116.846 57.9298 116.935 58.9465 116.935 59.9842C116.935 69.6326 109.114 77.4537 99.4658 77.4537C89.8174 77.4537 81.998 69.6326 81.998 59.9842C81.998 50.3358 89.8192 42.5146 99.4676 42.5146Z" fill="#EBEBEB"/>
<path fill-rule="evenodd" clip-rule="evenodd" d="M92.8984 55.7259L99.4705 59.9832L113.652 49.5889L115.759 53.0111L99.4705 64.9149L92.8984 60.813V55.7259Z" fill="#EBEBEB"/>
<path d="M136.759 58.4046C134.435 57.9963 132.494 57.3516 132.494 55.8472C132.494 53.698 135.202 53.3972 136.397 53.3972C137.686 53.3312 138.97 53.5975 140.128 54.1709L143.391 51.7638C141.293 50.4811 138.893 49.7839 136.439 49.7437C130.298 49.7437 128.144 53.0318 128.144 56.191C128.144 60.6182 131.94 61.5209 135.33 62.3375C137.697 62.8963 139.723 63.4121 139.723 65.0884C139.723 65.9481 139.233 67.388 135.799 67.388C133.46 67.3436 131.188 66.5951 129.274 65.2389L127.781 68.656C130.161 70.1721 132.943 70.9218 135.757 70.8051C140.726 70.8911 144.01 68.3121 144.01 64.4437C143.967 60.1454 140.15 59.1998 136.759 58.4046Z" fill="#EBEBEB"/>
<path d="M157.913 67.022H152.454V61.7782H157.913C160.408 61.7782 161.687 62.6593 161.687 64.4001C161.687 66.1409 160.45 67.022 157.913 67.022ZM152.454 58.4255H157.124H152.454ZM152.454 53.3536H157.124C160.088 53.3536 160.685 54.729 160.685 55.8896C160.685 57.5229 159.448 58.404 157.124 58.404H152.454V53.3536ZM162.54 59.801C163.342 59.377 164.01 58.736 164.47 57.95C164.929 57.1641 165.162 56.2644 165.142 55.3523C165.142 52.0211 162.348 50.0869 157.678 50.0869H148.061V70.5681H158.254C163.308 70.5681 166.102 68.5909 166.102 65.0448C166.182 63.9018 165.873 62.7652 165.226 61.8233C164.578 60.8814 163.631 60.1907 162.54 59.8654V59.801Z" fill="#EBEBEB"/>
<path d="M180.988 53.3536L185.573 49.9365H170.197V70.4392H185.573V67.0221H174.59V61.7782H183.973V58.3611H174.59V53.3536H180.988Z" fill="#EBEBEB"/>
<path d="M194.059 53.3541H197.961C200.776 53.3541 202.226 54.7725 202.226 57.287C202.226 59.8015 200.691 61.2199 197.961 61.2199H194.059V53.3541ZM207.003 70.5471L202.546 63.7559C203.826 63.2503 204.922 62.361 205.684 61.208C206.447 60.055 206.84 58.6939 206.811 57.3085C206.811 52.7953 203.484 49.98 198.153 49.98H189.623V70.4612H194.016V64.6585H198.281L202.162 70.4612L207.003 70.5471Z" fill="#EBEBEB"/>
</svg>
