<svg width="289" height="120" viewBox="0 0 289 120" fill="none" xmlns="http://www.w3.org/2000/svg">
<path d="M202.156 68.9267C202.363 69.384 202.467 69.8775 202.467 70.3981C202.467 73.134 200.972 74.3108 200.244 74.9283C198.423 76.4617 195.824 76.3518 195.796 76.3518H194.384C193.497 76.3518 192.506 77.0998 192.506 78.1681C192.506 79.3087 193.258 79.9972 194.517 79.9972H195.801C195.874 79.9972 197.68 80.0722 199.621 79.4418C201.583 78.8049 204.29 77.3091 206.158 73.798C206.609 72.9648 210.462 64.1278 213.272 57.6831L215.419 52.7886C215.544 52.4876 215.556 52.1905 215.477 51.9192C215.386 51.6156 215.161 51.3625 214.837 51.1868C214.282 50.8948 213.512 50.8767 212.75 51.1222C211.968 51.3767 211.311 51.9024 211.056 52.4876C211.031 52.5639 207.849 59.5575 207.617 60.0419C206.995 61.304 206.246 62.0377 205.558 62.0377C204.749 62.0377 204.246 61.9369 203.087 59.9295C203 59.7719 199.518 53.5249 198.961 52.547C198.644 51.9308 197.969 51.4064 197.146 51.1403C196.322 50.8767 195.471 50.8884 194.874 51.2049C194.521 51.3947 194.272 51.6738 194.173 52.0019C194.084 52.2951 194.107 52.6219 194.242 52.9513C194.268 53.0146 201.711 67.9811 202.156 68.9267ZM182.326 59.8701C182.364 58.5848 183.387 57.5901 184.662 57.5901H184.66H184.703H184.655H187.633C188.6 57.5901 189.368 57.3033 189.916 56.7362C190.782 55.8578 190.814 54.5686 190.814 54.3258C190.815 53.9925 190.769 52.9048 189.988 52.1091C189.448 51.5588 188.68 51.2707 187.705 51.2707H184.682C182.629 51.2707 182.629 50.7902 182.629 49.5281C182.629 49.4997 182.691 46.933 184.712 46.207C185.352 45.9667 186.071 45.8543 186.833 45.8505H190.476C191.742 45.8505 192.878 44.9888 193.237 43.7578C193.319 43.4852 193.361 43.2062 193.361 42.9259C193.361 41.3112 192.06 40 190.476 40C190.421 40 187 40.0103 187 40.0103C186.522 40.0103 186.005 40.0413 185.47 40.0969C183.842 40.2752 182.387 40.655 181.121 41.2234C175.796 43.6235 175.547 48.5245 175.547 48.5774L175.542 48.6536C175.276 50.3497 174.841 51.2707 173.258 51.2707C172.472 51.2707 171.837 51.5213 171.376 52.0368C170.561 52.919 170.589 54.287 170.589 54.3051V54.287C170.589 57.0708 173.178 57.5901 173.219 57.5953C174.439 57.6973 175.363 58.7049 175.363 59.9282C175.363 59.9889 175.346 66.2527 175.346 69.5558C175.346 70.7184 175.66 71.6175 176.256 72.2324C177.043 73.032 178.057 73.0397 178.093 73.0397H179.482C179.564 73.0397 180.328 73.0255 181.043 72.5179C181.627 72.1174 182.327 71.2739 182.327 69.5881L182.326 59.8701ZM133.384 53.7057C133.384 53.7057 133.247 50.9685 136.125 50.9685C137.771 50.9685 138.809 52.4863 140.744 52.4863C143.219 52.4863 143.874 50.9685 147.228 50.9685C151.06 50.9685 151.278 52.4863 153.644 52.4863C156.145 52.4863 156.593 50.9685 161.002 50.9685C163.34 50.9685 165.919 52.3532 165.919 55.3372C165.919 59.405 165.929 70.1642 165.929 70.234C165.929 71.7648 164.701 73.0255 163.18 73.0255C161.667 73.0255 160.438 71.7648 160.438 70.234V58.0267C160.438 56.6678 160.456 53.9421 158.11 53.8853C158.11 53.8853 152.392 53.0844 152.392 63.2636C152.392 63.4263 152.401 70.1772 152.401 70.234C152.401 71.7648 151.169 73.0255 149.655 73.0255C148.169 73.0255 146.952 71.8177 146.911 70.318V58.0228C146.911 57.1341 147.065 53.8853 144.544 53.8853C139.676 53.8853 138.871 58.9452 138.871 63.0982V70.234C138.871 71.7648 137.64 73.0255 136.125 73.0255C134.638 73.0255 133.424 71.8177 133.384 70.318L133.384 53.7057ZM111.225 44.7331C101.89 44.7331 94.3361 52.4204 94.3361 61.915C94.3361 71.4005 101.89 79.0956 111.225 79.0956C120.559 79.0956 128.122 71.4005 128.122 61.915C128.122 52.4204 120.559 44.7331 111.225 44.7331ZM111.225 68.0509C107.909 68.0509 105.188 65.2981 105.188 61.915C105.188 58.5241 107.909 55.7739 111.225 55.7739C114.552 55.7739 117.26 58.5241 117.26 61.915C117.26 65.2981 114.552 68.0509 111.225 68.0509ZM74.8737 62.7507C74.9118 62.7624 76.1693 63.283 77.5042 63.8384L81.589 65.5255C82.5568 65.9091 83.056 66.9477 82.7804 68.0018C82.4476 69.322 80.8955 70.5712 77.5652 70.1164C76.2404 69.9343 73.1603 69.2639 73.126 69.2548L73.1502 69.2641C73.0765 69.2396 71.2221 68.5575 70.0739 69.1827C69.6662 69.4101 69.4008 69.7601 69.2788 70.251C68.8457 72.0104 70.6264 72.6214 70.6391 72.6304C71.2755 72.8604 71.9804 73.027 72.5482 73.1446L73.0219 73.2725C73.0587 73.2766 77.1016 74.2516 80.3049 74.2077C82.4134 74.1779 87.5295 73.6897 89.5312 69.9552C89.8272 69.4101 90.2374 67.4879 90.0317 66.271C89.7916 64.8578 89.375 63.4524 86.9681 61.8674C86.3584 61.4721 84.4621 60.8288 82.7804 60.2617C81.8977 59.9723 81.0492 59.6843 80.6098 59.5021C77.6605 58.2943 77.1359 57.195 77.0864 56.6447C77.0508 56.327 77.1512 55.5997 77.7151 54.9486C78.4238 54.1749 79.6013 53.7692 81.2156 53.7692C83.6467 53.7692 84.5866 54.0599 85.59 54.3583C85.7767 54.4255 85.9685 54.4875 86.1755 54.5404C86.9351 54.7419 87.5358 54.7135 87.9626 54.4487C88.4694 54.1231 88.5748 53.578 88.6167 53.3868C88.6764 53.0484 88.7539 51.9116 86.9846 51.1869C86.8423 51.1287 83.2275 49.7001 77.536 50.5023C76.7371 50.6108 75.171 50.9247 73.7027 51.7618C71.5498 52.9618 70.4308 54.8414 70.4702 57.1691C70.4982 58.8549 71.2704 60.3417 72.7095 61.5005C73.7827 62.3647 74.8382 62.738 74.884 62.7509" fill="#EBEBEB"/>
<path d="M217.605 72.6312C215.735 72.6312 214.473 71.2873 214.473 69.4858C214.473 67.6793 215.75 66.3154 217.62 66.3154C219.429 66.3154 220.788 67.6793 220.788 69.4858C220.788 71.2873 219.41 72.6312 217.605 72.6312ZM217.605 67.051C216.264 67.051 215.298 68.1082 215.298 69.4858C215.298 70.8484 216.264 71.9069 217.605 71.9069C218.942 71.9069 219.912 70.8484 219.912 69.4858C219.912 68.1082 218.942 67.051 217.605 67.051ZM218.124 71.0105C217.69 70.2475 217.442 69.7725 217.331 69.7725H217.253V71.0105H216.56V67.8651H217.609C218.307 67.8651 218.686 68.2304 218.686 68.7178C218.686 69.234 218.25 69.4908 217.971 69.583V69.588C218.124 69.588 218.556 70.3211 218.941 71.0105H218.124ZM217.367 68.4024H217.252V69.234H217.355C217.684 69.234 217.944 69.1105 217.944 68.7814C217.944 68.4822 217.739 68.4024 217.367 68.4024Z" fill="#EBEBEB"/>
</svg>
