<svg width="289" height="120" viewBox="0 0 289 120" fill="none" xmlns="http://www.w3.org/2000/svg">
<path fill-rule="evenodd" clip-rule="evenodd" d="M230.773 49.2069C230.003 49.5601 229.102 50.6612 228.961 51.4233C228.706 52.7957 229.367 54.2019 230.556 54.8138C231.503 55.3019 232.901 55.2181 233.727 54.624C234.897 53.783 235.343 51.9935 234.715 50.6585C234.106 49.3617 232.07 48.6123 230.773 49.2069ZM183.892 49.5847C180.153 50.3141 177.492 52.0088 176.007 54.6063C174.829 56.666 174.355 59.9406 174.86 62.5196C175.702 66.8171 178.407 69.4924 182.99 70.5617C185.127 71.0601 189.66 71.0122 191.646 70.4705C193.86 69.8663 195.27 69.0889 196.621 67.7269C200.502 63.8142 200.478 56.5251 196.57 52.5709C195.424 51.4113 193.369 50.308 191.376 49.7823C189.797 49.366 185.584 49.2548 183.892 49.5847ZM56.1561 51.4663L54 53.4231L57.0046 53.4739C60.4136 53.5316 61.2281 53.3642 62.6457 52.3144C63.3893 51.7637 64.9681 49.9383 64.9681 49.6293C64.9681 49.5634 63.4705 49.5095 61.6402 49.5095H58.3123L56.1561 51.4663ZM68.1237 49.6387C66.1618 49.9099 65.1266 50.6565 64.6996 52.1081C64.4725 52.8796 64.4271 54.5332 64.4271 62.0117V70.9891H66.6811H68.9352V63.0649C68.9352 54.2574 68.9538 54.0976 70.0247 53.7208C70.3635 53.6015 71.7748 53.5142 73.3607 53.5142H76.1096L77.2108 51.6358C77.8165 50.6028 78.3121 49.7017 78.3121 49.6334C78.3121 49.5038 69.0654 49.5086 68.1237 49.6387ZM84.5387 50.1011C84.4029 50.4265 82.4096 55.116 80.1088 60.5223C77.8081 65.9286 75.8851 70.4954 75.8355 70.6705C75.7533 70.9612 75.9347 70.9891 77.9154 70.9891H80.085L81.4075 67.807L82.73 64.6249L87.1595 64.6215L91.5892 64.618L93.0262 67.758L94.4632 70.8981L96.7777 70.9492C98.708 70.9918 99.0761 70.9578 98.9948 70.7441C98.9412 70.603 96.7717 65.7675 94.1736 59.9986L89.4496 49.5095H87.1175H84.7854L84.5387 50.1011ZM102.295 60.2493V70.9891H104.547H106.8L106.846 63.05L106.894 55.1111L113.099 63.05L119.304 70.9891H121.439H123.574V60.2493V49.5095H121.321H119.069L119.022 57.0767L118.975 64.6437L113.025 57.0767L107.074 49.5095H104.685H102.295V60.2493ZM127.721 50.8747V52.2399H131.326H134.931L134.977 61.569L135.024 70.8981L137.323 70.949L139.622 71V61.62V52.2399H143.229H146.835V50.8747V49.5095H137.278H127.721V50.8747ZM150.622 60.2493V70.9891H152.966H155.311V61.6859V52.3826L158.692 52.462C162.641 52.5547 163.683 52.8317 164.983 54.1336C166.704 55.8589 166.353 57.9091 164.147 59.0188C162.771 59.7107 161.636 59.8852 158.517 59.8852C156.596 59.8852 155.841 59.9442 155.889 60.0905C155.927 60.2034 158.51 62.7016 161.63 65.6419L167.302 70.988L170.074 70.9885C172.488 70.9891 172.818 70.9547 172.627 70.7224C172.507 70.5757 170.382 68.6332 167.905 66.4057L163.403 62.3559L164.812 62.1207C166.639 61.8157 168.601 60.8558 169.455 59.849C170.317 58.8329 170.819 57.4162 170.819 56.0005C170.819 53.85 169.576 52.1797 167.139 51.0526C164.612 49.8837 161.669 49.5098 154.995 49.5097L150.622 49.5095V60.2493ZM204.539 60.2547V71L206.838 70.949L209.137 70.8981L209.228 63.0576L209.318 55.2172L215.269 62.8583C218.541 67.0609 221.329 70.6121 221.463 70.7499C221.649 70.9403 222.21 70.988 223.807 70.9492L225.908 70.8981V60.2493V49.6005H223.654H221.4L221.309 57.0807L221.219 64.5609L215.301 57.0352L209.383 49.5095H206.961H204.539V60.2547ZM233.228 49.7914C233.985 50.1865 234.472 51.074 234.472 52.0579C234.472 53.5764 233.452 54.6063 231.949 54.6063C230.509 54.6063 229.424 53.5396 229.424 52.1245C229.424 50.1577 231.495 48.8871 233.228 49.7914ZM230.544 52.0887C230.58 53.2231 230.668 53.7819 230.822 53.8331C230.98 53.8862 231.047 53.6605 231.047 53.0742C231.047 52.4384 231.114 52.2399 231.329 52.2399C231.817 52.2399 232.255 52.5721 232.643 53.2364C232.849 53.5893 233.143 53.8782 233.295 53.8782C233.675 53.8782 233.645 53.7362 233.113 53.0332L232.655 52.4271L233.05 51.8879C233.426 51.3747 233.43 51.3265 233.143 50.8842C232.871 50.4648 232.728 50.4196 231.667 50.4196H230.492L230.544 52.0887ZM232.655 51.1199C232.907 51.5955 232.565 51.8759 231.732 51.8759C231.091 51.8759 231.047 51.8407 231.047 51.3298C231.047 50.8148 231.088 50.7837 231.762 50.7837C232.273 50.7837 232.528 50.8798 232.655 51.1199ZM188.487 51.8881C190.808 52.2682 192.763 53.623 193.718 55.5132C194.266 56.5977 194.802 58.8547 194.802 60.0804C194.802 62.667 193.908 65.289 192.542 66.707C191.024 68.2841 188.337 69.0426 185.682 68.644C181.538 68.0218 179.411 65.1379 179.423 60.1583C179.434 55.5857 181.406 52.8195 185.255 51.9771C186.706 51.6594 187.036 51.6503 188.487 51.8881ZM88.7197 57.9346C89.5344 59.7583 90.2532 61.3937 90.3168 61.569C90.4241 61.865 90.2016 61.8876 87.1831 61.8876H83.934L85.4958 58.2473C86.3549 56.2453 87.0984 54.6098 87.148 54.6129C87.1976 54.6162 87.9048 56.1108 88.7197 57.9346Z" fill="#EBEBEB"/>
</svg>
