<svg width="289" height="120" viewBox="0 0 289 120" fill="none" xmlns="http://www.w3.org/2000/svg">
<path d="M65 43V76.0917H94.2593V43H65Z" fill="#EBEBEB"/>
<path d="M117.952 66.2573L111.181 44.2656H104.633L114.805 74.8256H121.104L131.276 44.2656H124.728L117.952 66.2573Z" fill="#EBEBEB"/>
<path d="M217.496 63.3282C218.672 62.9162 219.784 62.3751 220.802 61.6453C223.885 59.2277 225.285 55.0925 224.202 51.2452C223.185 47.6213 219.879 44.6626 215.997 44.2158H200.672V74.8304H206.952V63.6807H211.137L218.032 74.8403H225.002L217.496 63.3282ZM213.996 58.8008H206.976V49.1503H214.473C216.284 49.2744 217.903 50.6098 218.508 52.2331C219.084 53.8862 218.767 55.9215 217.655 57.1279C216.731 58.1803 215.426 58.7661 213.996 58.8008Z" fill="#EBEBEB"/>
<path d="M93.0247 54.333V44.2158H66.2227V54.333L79.5914 67.7067L93.0247 54.333Z" fill="#777779"/>
<path d="M79.5914 74.8112L93.0247 61.4375V74.8112H66.2227V61.4375L79.5914 74.8112Z" fill="#232325"/>
<path d="M131.871 44.251V74.9053H138.21V44.251H131.871Z" fill="#EBEBEB"/>
<path d="M159.855 74.8503L166.249 53.7075L166.264 74.8403H172.052V44.2158H163.196L156.683 66.0635L150.17 44.2158H141.309V74.8403H147.097L147.117 53.7075L153.506 74.8503H159.855Z" fill="#EBEBEB"/>
<path d="M189.844 44.2158H183.077L172.523 74.8403H179.265L181.077 68.769H191.849L193.661 74.8403H200.398L189.844 44.2158ZM182.541 63.6161L186.463 50.58L190.385 63.6161H182.541Z" fill="#EBEBEB"/>
</svg>
