<svg width="289" height="120" viewBox="0 0 289 120" fill="none" xmlns="http://www.w3.org/2000/svg">
<path fill-rule="evenodd" clip-rule="evenodd" d="M154.294 48.9377C154.294 48.1655 154.601 47.425 155.147 46.8789C155.693 46.3328 156.433 46.0259 157.205 46.0257C158.264 46.0283 160.076 45.5752 161.663 48.3705L170.125 62.576L170.16 48.9377C170.16 48.5553 170.236 48.1766 170.382 47.8233C170.528 47.47 170.743 47.149 171.013 46.8786C171.284 46.6082 171.605 46.3937 171.958 46.2473C172.311 46.101 172.69 46.0257 173.072 46.0257C173.455 46.0257 173.834 46.101 174.187 46.2473C174.54 46.3937 174.861 46.6082 175.132 46.8786C175.402 47.149 175.616 47.47 175.763 47.8233C175.909 48.1766 175.984 48.5553 175.984 48.9377V70.4725C175.984 70.8549 175.909 71.2335 175.762 71.5868C175.616 71.9401 175.401 72.261 175.131 72.5313C174.86 72.8017 174.539 73.0161 174.186 73.1623C173.833 73.3085 173.454 73.3837 173.072 73.3836C170.655 73.3802 169.596 72.928 168.237 70.8114L160.114 57.3616L160.117 70.4716C160.117 71.2439 159.81 71.9846 159.264 72.5307C158.718 73.0768 157.977 73.3836 157.205 73.3836C156.433 73.3836 155.692 73.0768 155.146 72.5307C154.6 71.9846 154.293 71.2439 154.293 70.4716V48.9377H154.294ZM108.808 48.9377C108.808 48.1654 109.115 47.4247 109.661 46.8786C110.207 46.3325 110.948 46.0257 111.72 46.0257C112.777 46.0283 114.59 45.5752 116.178 48.3705L124.641 62.576L124.675 48.9377C124.675 48.1654 124.982 47.4247 125.528 46.8786C126.074 46.3325 126.815 46.0257 127.587 46.0257C128.359 46.0257 129.1 46.3325 129.646 46.8786C130.192 47.4247 130.499 48.1654 130.499 48.9377V70.4725C130.499 71.2446 130.192 71.9851 129.646 72.531C129.1 73.0769 128.359 73.3836 127.587 73.3836C125.17 73.3802 124.111 72.928 122.751 70.8114L114.628 57.3616L114.631 70.4716C114.631 71.2439 114.324 71.9846 113.778 72.5307C113.232 73.0768 112.491 73.3836 111.719 73.3836C110.947 73.3836 110.206 73.0768 109.66 72.5307C109.114 71.9846 108.807 71.2439 108.807 70.4716V48.9377H108.808ZM179.798 73.3828C178.189 73.3828 176.772 71.6639 176.772 70.0557C176.77 67.9772 177.644 66.5792 178.211 65.8996L189.619 51.848H180.327C179.944 51.848 179.566 51.7726 179.212 51.6263C178.859 51.4799 178.538 51.2654 178.268 50.995C177.997 50.7246 177.783 50.4036 177.637 50.0503C177.49 49.697 177.415 49.3183 177.415 48.936C177.415 48.5536 177.49 48.1749 177.637 47.8216C177.783 47.4683 177.997 47.1473 178.268 46.8769C178.538 46.6065 178.859 46.392 179.212 46.2456C179.566 46.0993 179.944 46.0239 180.327 46.0239H194.682C196.29 46.0239 197.594 47.6295 197.594 49.2377C197.629 50.1819 197.479 51.3914 196.761 52.1091L184.141 67.5605L195.06 67.557C195.833 67.557 196.573 67.8638 197.119 68.4099C197.666 68.956 197.972 69.6967 197.972 70.469C197.972 71.2413 197.666 71.982 197.119 72.5281C196.573 73.0742 195.833 73.381 195.06 73.381H179.798V73.3828ZM95.626 67.9608C91.737 67.9608 89.6568 64.9528 89.6568 59.8931C89.6568 54.8334 91.737 51.8255 95.626 51.8255C99.5159 51.8255 101.595 54.8334 101.595 59.8931C101.595 64.9528 99.515 67.9608 95.626 67.9608V73.7312C102.87 73.7312 107.67 68.1398 107.67 59.8931C107.67 51.6465 102.871 46.0559 95.626 46.0559C88.3815 46.0559 83.582 51.6465 83.582 59.8931C83.582 68.1398 88.3815 73.7312 95.626 73.7312V67.9608ZM148.115 71.4478C148.239 71.8096 148.432 72.1434 148.685 72.4303C148.938 72.7171 149.245 72.9514 149.589 73.1196C149.932 73.2879 150.305 73.3868 150.687 73.4108C151.069 73.4348 151.451 73.3834 151.813 73.2596C152.175 73.1357 152.509 72.9418 152.796 72.6889C153.082 72.436 153.317 72.129 153.485 71.7856C153.653 71.4422 153.752 71.069 153.776 70.6873C153.8 70.3056 153.749 69.923 153.625 69.5612L146.136 48.7103C145.721 47.4635 145.154 46.0274 142.434 46.0274C139.714 46.0274 139.072 47.4635 138.656 48.7103L131.167 69.5612C130.916 70.292 130.967 71.0922 131.307 71.7859C131.647 72.4796 132.248 73.0098 132.979 73.26C133.71 73.5102 134.51 73.4598 135.204 73.1199C135.897 72.7801 136.427 72.1786 136.678 71.4478L138.165 67.3357H146.628L144.852 62.3486H139.941L142.396 55.5476L148.115 71.4478Z" fill="#EBEBEB"/>
<path fill-rule="evenodd" clip-rule="evenodd" d="M214.53 71.4477C214.654 71.8095 214.848 72.1434 215.101 72.4302C215.354 72.7171 215.661 72.9513 216.004 73.1196C216.347 73.2878 216.721 73.3868 217.102 73.4108C217.484 73.4348 217.867 73.3834 218.228 73.2595C218.59 73.1356 218.924 72.9417 219.211 72.6888C219.498 72.4359 219.732 72.129 219.9 71.7856C220.069 71.4421 220.167 71.0689 220.191 70.6873C220.215 70.3056 220.164 69.9229 220.04 69.5611L212.551 48.7102C212.136 47.4635 211.568 46.0274 208.848 46.0274C206.129 46.0274 205.485 47.4635 205.07 48.7102L197.581 69.5611C197.486 69.8552 197.437 70.1625 197.438 70.4716C197.438 70.8539 197.513 71.2325 197.659 71.5858C197.805 71.939 198.02 72.26 198.29 72.5303C198.56 72.8007 198.881 73.0151 199.235 73.1613C199.588 73.3076 199.966 73.3828 200.349 73.3827C200.95 73.3826 201.536 73.1965 202.028 72.8501C202.519 72.5037 202.891 72.0139 203.093 71.4477L204.579 67.3356H213.043L211.266 62.3486H206.355L208.811 55.5476L214.53 71.4477ZM74.9217 46.0265C79.5543 46.0265 83.3102 49.7824 83.3102 54.4149C83.3102 56.1519 82.5536 57.8907 80.8201 59.1046C83.0067 60.0807 84.1506 62.7134 84.1506 64.8412C84.1506 69.5629 80.3229 73.3896 75.6022 73.3896L66.9129 73.3827C66.1407 73.3827 65.4002 73.076 64.8541 72.5301C64.308 71.9842 64.0011 71.2437 64.0009 70.4716V67.5622L75.6022 67.5639C76.9596 67.5639 78.0594 66.35 78.0594 64.9934C78.0594 63.636 76.9596 62.384 75.6022 62.384H69.8595V56.7572L74.9217 56.7658C76.2195 56.7658 77.2726 55.5614 77.2726 54.2636C77.2726 52.965 76.2204 51.8367 74.9217 51.8367H69.8595V67.5613H64V48.9376C64 48.1653 64.3068 47.4246 64.8529 46.8785C65.399 46.3324 66.1397 46.0256 66.912 46.0256L74.9217 46.0265ZM222.811 70.9973H223.573C223.904 70.9973 224.272 71.1226 224.272 71.548C224.272 72.0279 223.817 72.0711 223.397 72.0711H222.811V72.2769H223.529L224.36 73.5505H224.622L223.798 72.2838C224.191 72.2215 224.509 72.0037 224.509 71.5523C224.509 71.0543 224.235 70.7906 223.61 70.7906H222.574V73.5496H222.811V70.9973Z" fill="#EBEBEB"/>
<path fill-rule="evenodd" clip-rule="evenodd" d="M223.421 69.8369C223.728 69.8363 224.032 69.8963 224.315 70.0134C224.599 70.1304 224.856 70.3023 225.073 70.519C225.29 70.7358 225.462 70.9933 225.58 71.2767C225.697 71.5601 225.757 71.8638 225.757 72.1705C225.757 73.464 224.713 74.5058 223.421 74.5058C222.13 74.5058 221.088 73.464 221.088 72.1705C221.087 71.8639 221.147 71.5602 221.264 71.2768C221.381 70.9934 221.553 70.7359 221.77 70.5191C221.987 70.3023 222.244 70.1305 222.528 70.0134C222.811 69.8963 223.115 69.8363 223.421 69.8369L223.428 70.0427C222.224 70.0427 221.324 70.9661 221.324 72.1705C221.324 73.3507 222.236 74.3 223.428 74.3C224.621 74.3 225.519 73.3446 225.519 72.1653C225.519 70.973 224.628 70.0427 223.428 70.0427L223.421 69.8369Z" fill="#EBEBEB"/>
</svg>
