<svg width="289" height="120" viewBox="0 0 289 120" fill="none" xmlns="http://www.w3.org/2000/svg">
<path fill-rule="evenodd" clip-rule="evenodd" d="M161.047 55.1228C161.047 52.5683 160.208 51.1717 157.991 50.0306C156.715 49.3744 154.849 49.2185 147.245 49.1324C131.154 48.9504 130.336 49.5047 130.31 60.6035C130.292 68.0948 130.741 69.4965 133.633 70.9815C135.501 71.9407 136.24 72.0021 145.792 71.9951C160.114 71.9839 160.877 71.5535 161.146 63.3432L161.289 58.9747H145.792L145.499 63.3591L149.756 63.4936C154.176 63.6336 154.921 64.0446 153.799 65.7227C153.42 66.2905 152.022 66.4208 146.31 66.4208C141.429 66.4208 139.324 66.4618 138.417 65.4804C137.694 64.6977 137.732 63.2645 137.732 60.6412C137.732 58.2138 137.963 56.0912 138.265 55.7417C138.985 54.9073 145.193 54.3986 149.701 54.8044C152.961 55.0981 153.417 55.2573 153.806 56.2401C154.209 57.2593 154.509 57.3459 157.645 57.3459H161.047V55.1228ZM200.155 54.0017C199.883 51.2778 198.927 50.2302 195.997 49.4484C193.51 48.7847 178.65 48.8829 176.589 49.5768C174.11 50.4117 172.987 52.1927 172.787 55.6058C172.459 61.2099 174.392 62.815 181.629 62.9505C183.76 62.99 187.355 63.1589 189.619 63.3256L193.736 63.6285V66.4208H186.956C180.39 66.4208 180.161 66.3878 179.698 65.3737C179.27 64.4364 178.877 64.3266 175.945 64.3266H172.67L172.677 66.0718C172.687 68.4257 173.548 69.9037 175.576 71.049C177.134 71.9281 178.05 72.0049 186.956 71.9998C193.394 71.9961 197.08 71.808 197.948 71.439C200.212 70.4766 201 68.7444 201 64.7338C201 61.5743 200.859 60.9996 199.825 59.9422C198.293 58.3748 196.112 57.8299 191.072 57.7559C188.808 57.7228 185.43 57.5646 183.566 57.4045C180.372 57.13 180.176 57.0471 180.176 55.9707C180.176 54.5387 181.314 54.1971 186.29 54.1348C191.253 54.0724 193.009 54.4405 193.009 55.5425C193.009 56.3193 193.414 56.4151 196.703 56.4151H200.397L200.155 54.0017ZM118.672 60.6398C118.672 53.2068 118.359 51.9926 116.05 50.4848C114.946 49.7639 113.235 49.6499 101.597 49.5233C90.9475 49.4074 88.3488 49.4996 88.1488 49.9994C88.0128 50.34 87.9605 55.3261 88.0321 61.0796L88.1629 71.54H100.996C114.994 71.54 115.655 71.4325 117.66 68.8301C118.58 67.6364 118.672 66.8852 118.672 60.6398ZM128.358 57.1132L128.639 49.4344H120.852V57.385L128.358 57.1132ZM170.733 57.385V49.4344H162.945L163.226 57.1132L170.733 57.385ZM95.1849 65.7227V55.019H102.341C111.634 55.019 111.65 55.0283 111.65 60.3639C111.65 62.6866 111.685 64.003 111.024 64.7489C110.126 65.761 107.946 65.7227 102.657 65.7227H95.1849ZM128.627 71.7727L128.358 58.9747L120.852 58.7029V71.7727H128.627ZM170.733 71.8118V58.742H167.085C164.531 58.742 163.365 58.924 163.195 59.3493C163.062 59.6835 163.014 62.5633 163.09 65.7483L163.226 71.54L170.733 71.8118Z" fill="#EBEBEB"/>
</svg>
