<svg width="289" height="120" viewBox="0 0 289 120" fill="none" xmlns="http://www.w3.org/2000/svg">
<path d="M118.469 51.2441C118.469 52.8074 117.329 54.0313 115.511 54.0313C113.779 54.0313 112.637 52.8062 112.637 51.2441C112.637 49.6378 113.82 48.4116 115.552 48.4116C117.328 48.4128 118.427 49.6378 118.469 51.2441ZM112.932 56.9916H118.172V77.5711H112.932V56.9916Z" fill="#EBEBEB"/>
<path d="M123.748 63.6256C123.748 60.8361 123.706 58.8497 123.578 56.9912H128.101L128.27 60.9209H128.439C129.453 58.0047 131.862 56.5251 134.06 56.5251C134.569 56.5251 134.863 56.5682 135.286 56.6507V61.5544C134.864 61.4707 134.398 61.3858 133.764 61.3858C131.271 61.3858 129.58 62.991 129.115 65.3167C129.032 65.7816 128.946 66.3302 128.946 66.9207V77.5719H123.747V63.6256H123.748Z" fill="#EBEBEB"/>
<path d="M144.332 51.2441C144.332 52.8074 143.191 54.0313 141.373 54.0313C139.643 54.0313 138.5 52.8062 138.5 51.2441C138.5 49.6378 139.683 48.4116 141.416 48.4116C143.19 48.4128 144.289 49.6378 144.332 51.2441ZM138.795 56.9916H144.035V77.5711H138.795V56.9916Z" fill="#EBEBEB"/>
<path d="M168.591 47.5664V71.7827C168.591 73.8946 168.675 76.1773 168.76 77.572H164.111L163.898 74.3176H163.814C162.588 76.6004 160.096 78.037 157.097 78.037C152.192 78.037 148.307 73.8516 148.307 67.5124C148.264 60.6236 152.574 56.5242 157.519 56.5242C160.351 56.5242 162.381 57.7085 163.307 59.2288H163.392V47.5664H168.591ZM163.391 65.5703C163.391 65.146 163.349 64.6393 163.267 64.2185C162.801 62.1892 161.153 60.5399 158.787 60.5399C155.449 60.5399 153.587 63.4991 153.587 67.3439C153.587 71.1039 155.449 73.8527 158.744 73.8527C160.856 73.8527 162.717 72.4185 163.223 70.1764C163.35 69.7126 163.392 69.2036 163.392 68.655V65.5703H163.391Z" fill="#EBEBEB"/>
<path d="M179.705 51.2441C179.705 52.8074 178.563 54.0313 176.745 54.0313C175.014 54.0313 173.871 52.8062 173.871 51.2441C173.871 49.6378 175.055 48.4116 176.787 48.4116C178.563 48.4128 179.663 49.6378 179.705 51.2441ZM174.169 56.9916H179.412V77.5711H174.169V56.9916Z" fill="#EBEBEB"/>
<path d="M203.411 71.4022C203.411 73.8523 203.495 75.8816 203.581 77.5716H199.016L198.761 74.4462H198.676C197.789 75.9235 195.761 78.0388 192.084 78.0388C188.325 78.0388 184.898 75.7991 184.898 69.0788V56.991H190.099V68.1896C190.099 71.6126 191.197 73.8093 193.946 73.8093C196.015 73.8093 197.366 72.332 197.92 71.0221C198.086 70.5572 198.212 70.0074 198.212 69.4158V56.991H203.411V71.4022Z" fill="#EBEBEB"/>
<path d="M209.032 63.1188C209.032 60.7524 208.988 58.766 208.861 56.9924H213.342L213.555 60.0329H213.679C214.695 58.4278 216.553 56.5263 220.02 56.5263C222.724 56.5263 224.839 58.0477 225.725 60.3282H225.811C226.528 59.1879 227.372 58.3418 228.345 57.7502C229.484 56.9482 230.796 56.5251 232.486 56.5251C235.907 56.5251 239.375 58.8497 239.375 65.4422V77.5707H234.303V66.2035C234.303 62.7806 233.118 60.7524 230.625 60.7524C228.853 60.7524 227.542 62.0193 226.993 63.4989C226.865 64.0056 226.738 64.6391 226.738 65.2318V77.5707H221.666V65.6538C221.666 62.7806 220.528 60.7524 218.117 60.7524C216.174 60.7524 214.863 62.2738 214.397 63.7104C214.186 64.2195 214.102 64.8088 214.102 65.4015V77.5719H209.032V63.1188Z" fill="#EBEBEB"/>
<path d="M47.9433 49.1681C49.5693 49.1681 50.8897 47.8477 50.8897 46.2228C50.8897 44.5956 49.5693 43.2776 47.9433 43.2776C46.3161 43.2776 44.998 44.5945 44.998 46.2228C44.998 47.8477 46.3161 49.1681 47.9433 49.1681Z" fill="#C0C0C0"/>
<path d="M60.0616 47.8916C61.6888 47.8916 63.008 46.5736 63.008 44.9452C63.008 43.3192 61.6888 42 60.0616 42C58.4368 42 57.1152 43.3192 57.1152 44.9452C57.1152 46.5748 58.4368 47.8916 60.0616 47.8916Z" fill="#C0C0C0"/>
<path d="M68.7839 56.246C70.4123 56.246 71.7303 54.9233 71.7303 53.2973C71.7303 51.6712 70.4123 50.3521 68.7839 50.3521C67.159 50.3521 65.8398 51.6712 65.8398 53.2973C65.8398 54.9233 67.1579 56.246 68.7839 56.246Z" fill="#C0C0C0"/>
<path d="M79.9073 62.6399C81.5345 62.6399 82.8561 61.3172 82.8561 59.6946C82.8561 58.0651 81.5345 56.7471 79.9073 56.7471C78.2801 56.7471 76.9609 58.0651 76.9609 59.6946C76.9609 61.3172 78.2801 62.6399 79.9073 62.6399Z" fill="#C0C0C0"/>
<path d="M79.9073 73.2178C81.5345 73.2178 82.8561 71.9033 82.8561 70.2737C82.8561 68.6454 81.5345 67.3262 79.9073 67.3262C78.2801 67.3262 76.9609 68.6454 76.9609 70.2737C76.9609 71.9044 78.2801 73.2178 79.9073 73.2178Z" fill="#C0C0C0"/>
<path d="M92.1866 77.604C93.8127 77.604 95.1319 76.286 95.1319 74.6576C95.1319 73.0316 93.8127 71.7124 92.1866 71.7124C90.5606 71.7124 89.2402 73.0316 89.2402 74.6576C89.2391 76.286 90.5594 77.604 92.1866 77.604Z" fill="#C0C0C0"/>
<path d="M98.2167 67.4076C99.8439 67.4076 101.162 66.0873 101.162 64.4612C101.162 62.8352 99.8439 61.5183 98.2167 61.5183C96.5907 61.5183 95.2715 62.8352 95.2715 64.4612C95.2715 66.0873 96.5907 67.4076 98.2167 67.4076Z" fill="#C0C0C0"/>
<path d="M242.393 56.8306C243.787 56.8306 244.912 57.9533 244.912 59.3655C244.912 60.794 243.787 61.9167 242.376 61.9167C240.948 61.9167 239.826 60.794 239.826 59.3655C239.826 57.9533 240.949 56.8306 242.376 56.8306H242.393ZM242.343 57.4082C241.301 57.4082 240.515 58.2904 240.515 59.3655C240.515 60.472 241.301 61.3391 242.377 61.3391C243.436 61.3542 244.223 60.472 244.223 59.3655C244.223 58.2904 243.436 57.4082 242.361 57.4082H242.343ZM242.008 60.6312H241.413V58.1928C241.589 58.1614 241.91 58.1126 242.343 58.1126C242.809 58.1126 243.033 58.1928 243.212 58.3043C243.355 58.4008 243.451 58.5938 243.451 58.8344C243.451 59.0912 243.227 59.2993 242.939 59.3957V59.4271C243.177 59.5073 243.307 59.7003 243.389 60.0362C243.466 60.3895 243.515 60.5348 243.564 60.6301H242.907C242.828 60.5348 242.778 60.3256 242.717 60.071C242.667 59.8118 242.539 59.7014 242.265 59.7014H242.008V60.6312ZM242.04 59.2353H242.263C242.552 59.2353 242.776 59.1389 242.776 58.9157C242.776 58.7053 242.616 58.5949 242.31 58.5949C242.186 58.5949 242.086 58.6112 242.04 58.6112V59.2353Z" fill="#EBEBEB"/>
</svg>
