<svg id="Layer_1" data-name="Layer 1" xmlns="http://www.w3.org/2000/svg" viewBox="0 0 16 17"><path d="M12.22,15.5a5.85,5.85,0,0,1-2.75-.94,17.66,17.66,0,0,1-4.32-3.23A16,16,0,0,1,1.91,7C.75,4.92,1,3.82,1.17,3.35A3,3,0,0,1,2.31,2.12a6.42,6.42,0,0,1,.9-.47l.09,0A.83.83,0,0,1,4,1.55a1.91,1.91,0,0,1,.65.5A10.61,10.61,0,0,1,6.26,4.47a2.26,2.26,0,0,1,.32,1,1.6,1.6,0,0,1-.39.93l-.13.16c-.23.32-.29.41-.25.57A6,6,0,0,0,7.25,9.26a5.74,5.74,0,0,0,2.12,1.41c.17,0,.26,0,.58-.27l.14-.11A1.64,1.64,0,0,1,11,9.87h0a2.22,2.22,0,0,1,1,.35,12,12,0,0,1,2.41,1.62,1.91,1.91,0,0,1,.5.65.86.86,0,0,1-.06.69l0,.08a5.1,5.1,0,0,1-.48.89,2.91,2.91,0,0,1-1.23,1.15A2.24,2.24,0,0,1,12.22,15.5Z"/></svg>