<svg id="Layer_1" data-name="Layer 1" xmlns="http://www.w3.org/2000/svg" viewBox="0 0 24 24"><path d="M11.54,21.67A9.59,9.59,0,0,1,1.91,10.1,10.62,10.62,0,0,1,8.08,2.31a.75.75,0,0,1,.83.16.73.73,0,0,1,.15.83,9.06,9.06,0,0,0-.63,3.53,8.64,8.64,0,0,0,8.64,8.65,9.13,9.13,0,0,0,3.53-.63.74.74,0,0,1,1,1,10.43,10.43,0,0,1-7.76,5.62A12.93,12.93,0,0,1,11.54,21.67ZM7.13,4.55a9.21,9.21,0,0,0-3.75,5.83,8.2,8.2,0,0,0,2.24,7.46A8.64,8.64,0,0,0,13.54,20a9.91,9.91,0,0,0,5.69-3.17,12.34,12.34,0,0,1-2.16.18A10.06,10.06,0,0,1,9.9,14a10.12,10.12,0,0,1-3-7.18A12.65,12.65,0,0,1,7.13,4.55Z"/></svg>