<svg id="Layer_1" data-name="Layer 1" xmlns="http://www.w3.org/2000/svg" viewBox="0 0 24 24"><path d="M12,22.5c-5.09,0-8.25-3.47-8.25-9.07S11.22,1.9,11.54,1.66L12,1.3l.46.36c.32.24,7.79,6.09,7.79,11.77S17.09,22.5,12,22.5ZM12,3.22c-1.59,1.33-6.75,6-6.75,10.21C5.25,18.24,7.71,21,12,21s6.75-2.76,6.75-7.57C18.75,9.22,13.59,4.55,12,3.22Z"/><path d="M10.74,19.36l-.14,0c-3.84-.9-4-4.76-3.62-6.67a.58.58,0,0,1,.69-.45.59.59,0,0,1,.45.7c-.34,1.53-.2,4.59,2.75,5.28a.6.6,0,0,1,.44.71A.59.59,0,0,1,10.74,19.36Z"/></svg>