<svg id="Layer_1" data-name="Layer 1" xmlns="http://www.w3.org/2000/svg" viewBox="0 0 112 112"><defs><style>.cls-1{fill:#202024;}.cls-2{fill:none;stroke:#22bdfe;stroke-opacity:0.3;stroke-width:2px;}.cls-3{opacity:0.7;}.cls-4{fill:#202125;}</style></defs><circle class="cls-1" cx="56" cy="56" r="56"/><circle class="cls-2" cx="56" cy="56" r="55"/><g class="cls-3"><path d="M56,102a46,46,0,1,1,46-46A46.06,46.06,0,0,1,56,102Zm0-90a44,44,0,1,0,44,44A44.05,44.05,0,0,0,56,12Z"/></g><circle cx="56" cy="56" r="36"/><path class="cls-4" d="M48,66.61l0-21.12a2,2,0,0,1,3-1.73l18,10.57a2,2,0,0,1,0,3.45L51,68.34A2,2,0,0,1,48,66.61Z"/></svg>