<svg id="Layer_1" data-name="Layer 1" xmlns="http://www.w3.org/2000/svg" viewBox="0 0 24 24"><path d="M23,11.46,19.5,8.09V3a.76.76,0,0,0-.75-.75H16.5a.76.76,0,0,0-.75.75V4.5l-2.7-2.58A1.42,1.42,0,0,0,12,1.5h0a1.4,1.4,0,0,0-1,.4L1,11.46a.75.75,0,0,0,1,1.08l1-.94V21a1.5,1.5,0,0,0,1.5,1.5H9a.76.76,0,0,0,.75-.75V15.38a.38.38,0,0,1,.38-.38h3.75a.36.36,0,0,1,.26.11.37.37,0,0,1,.11.27v6.37a.76.76,0,0,0,.75.75h4.5A1.5,1.5,0,0,0,21,21V11.6l1,.94a.75.75,0,0,0,1-1.08ZM17.25,3.75H18v2.9l-.75-.71ZM19.5,21H15.75V15.38a1.88,1.88,0,0,0-1.87-1.88H10.13a1.87,1.87,0,0,0-1.33.55,1.83,1.83,0,0,0-.55,1.33V21H4.5V10.16L12,3l7.51,7.19Z"/></svg>