<svg width="177" height="13" viewBox="0 0 177 13" fill="none" xmlns="http://www.w3.org/2000/svg">
<path d="M171 6.00001C86.4281 6.00001 90.5719 6.00001 6 6" stroke="#22BDFE" stroke-width="2"/>
<path d="M11.4898 5.99534C11.4898 9.03036 9.0296 11.4907 5.99489 11.4907C2.96018 11.4907 0.5 9.03036 0.5 5.99534C0.5 2.96031 2.96018 0.5 5.99489 0.5C9.0296 0.5 11.4898 2.96031 11.4898 5.99534Z" fill="white" stroke="#22BDFE"/>
<path d="M176.49 6.33909C176.49 9.37411 174.03 11.8344 170.995 11.8344C167.96 11.8344 165.5 9.37411 165.5 6.33909C165.5 3.30406 167.96 0.84375 170.995 0.84375C174.03 0.84375 176.49 3.30406 176.49 6.33909Z" fill="white" stroke="#22BDFE"/>
</svg>
