<svg width="216" height="28" viewBox="0 0 216 28" fill="none" xmlns="http://www.w3.org/2000/svg">
<path d="M6.45703 21.2575V11.7695C6.45703 8.45583 9.14332 5.76953 12.457 5.76953H210" stroke="#22BDFE" stroke-width="2"/>
<path d="M215.49 5.99534C215.49 9.03036 213.03 11.4907 209.995 11.4907C206.96 11.4907 204.5 9.03036 204.5 5.99534C204.5 2.96031 206.96 0.5 209.995 0.5C213.03 0.5 215.49 2.96031 215.49 5.99534Z" fill="white" stroke="#22BDFE"/>
<path d="M11.9546 21.7571C11.9546 24.7921 9.49445 27.2524 6.45974 27.2524C3.42503 27.2524 0.964844 24.7921 0.964844 21.7571C0.964844 18.722 3.42503 16.2617 6.45974 16.2617C9.49445 16.2617 11.9546 18.722 11.9546 21.7571Z" fill="white" stroke="#22BDFE"/>
</svg>
