<svg width="108" height="103" viewBox="0 0 108 103" fill="none" xmlns="http://www.w3.org/2000/svg">
<path d="M104 99L104 9.99999C104 6.68628 101.314 4 97.9998 4L6.00001 4" stroke="#22BDFE"/>
<path d="M107.499 99C107.499 100.933 105.933 102.5 104 102.5C102.067 102.5 100.5 100.933 100.5 99C100.5 97.067 102.067 95.5 104 95.5C105.933 95.5 107.499 97.067 107.499 99Z" fill="white" stroke="#22BDFE"/>
<path d="M7.49941 4C7.49941 5.93303 5.9325 7.5 3.9997 7.5C2.06691 7.5 0.5 5.93303 0.5 4C0.5 2.06697 2.06691 0.5 3.9997 0.5C5.9325 0.5 7.49941 2.06697 7.49941 4Z" fill="white" stroke="#22BDFE"/>
</svg>
