<svg width="44" height="44" viewBox="0 0 44 44" fill="none" xmlns="http://www.w3.org/2000/svg">
<path d="M31.9211 12.069C29.289 9.44632 25.7884 8.00139 22.0588 8C14.3747 8 8.12002 14.2237 8.11723 21.8738C8.1163 24.3193 8.75828 26.7063 9.97804 28.8101L8 36L15.3907 34.0708C17.4268 35.1764 19.7198 35.7588 22.0528 35.7597H22.0584C29.7421 35.7597 35.9967 29.5351 36 21.8854C36.0023 18.1775 34.5537 14.6918 31.9211 12.069ZM22.0593 33.4162H22.0547C19.9752 33.4152 17.9358 32.8592 16.1568 31.8087L15.7335 31.5587L11.3476 32.7036L12.518 28.448L12.2426 28.0114C11.0829 26.1753 10.4702 24.0535 10.4711 21.8743C10.4735 15.5159 15.6721 10.3431 22.0635 10.3431C25.1585 10.344 28.0679 11.5454 30.2557 13.7251C32.4435 15.9048 33.6475 18.802 33.6465 21.8836C33.6442 28.2429 28.4461 33.4162 22.0593 33.4162Z" fill="#28A71A"/>
<path d="M28.4172 24.779C28.0687 24.6054 26.3563 23.7669 26.0367 23.6512C25.7176 23.5354 25.485 23.4776 25.2529 23.8248C25.0207 24.172 24.3532 24.9526 24.1499 25.1841C23.9466 25.4156 23.7433 25.4443 23.3953 25.2707C23.0469 25.097 21.9243 24.7313 20.5939 23.5498C19.5583 22.6303 18.8591 21.4951 18.6558 21.1484C18.4525 20.8011 18.634 20.6136 18.8084 20.441C18.9652 20.2854 19.1569 20.0359 19.3308 19.8335C19.5048 19.6312 19.563 19.4863 19.6793 19.2553C19.7956 19.0238 19.7374 18.8215 19.6504 18.6479C19.5634 18.4743 18.8666 16.7677 18.5763 16.0738C18.2934 15.3978 18.0064 15.4895 17.7924 15.4788C17.5896 15.4686 17.357 15.4668 17.1249 15.4668C16.8927 15.4668 16.5154 15.5534 16.1959 15.9006C15.8767 16.2478 14.9766 17.0863 14.9766 18.7928C14.9766 20.4993 16.2247 22.1479 16.3991 22.3789C16.5731 22.6104 18.8554 26.1119 22.35 27.6138C23.1813 27.9712 23.8298 28.1841 24.3359 28.3439C25.1705 28.6078 25.9297 28.5707 26.5303 28.4814C27.1997 28.3818 28.5911 27.6429 28.8814 26.8332C29.1717 26.0235 29.1717 25.329 29.0847 25.1846C28.9977 25.0396 28.7656 24.9526 28.4172 24.779Z" fill="#28A71A"/>
</svg>
