<svg width="49" height="111" viewBox="0 0 49 111" fill="none" xmlns="http://www.w3.org/2000/svg">
<path d="M45 4L10 4.00001C6.68629 4.00001 4 6.68631 4 10L4 107" stroke="#22BDFE"/>
<path d="M7.49941 107C7.49941 108.933 5.9325 110.5 3.9997 110.5C2.06691 110.5 0.5 108.933 0.5 107C0.5 105.067 2.06691 103.5 3.9997 103.5C5.9325 103.5 7.49941 105.067 7.49941 107Z" fill="white" stroke="#22BDFE"/>
<path d="M48.4994 4C48.4994 5.93303 46.9325 7.5 44.9997 7.5C43.0669 7.5 41.5 5.93303 41.5 4C41.5 2.06697 43.0669 0.5 44.9997 0.5C46.9325 0.5 48.4994 2.06697 48.4994 4Z" fill="white" stroke="#22BDFE"/>
</svg>
