<svg width="137" height="25" viewBox="0 0 137 25" fill="none" xmlns="http://www.w3.org/2000/svg">
<path d="M20.0834 24.786L20.0522 9.8887L12.8684 22.2175H11.0568L3.87301 10.0813V24.786H0V2.31164H3.34203L12.0251 17.2089L20.5519 2.31164H23.894L23.9252 24.786H20.0834Z" fill="#00CFFF"/>
<path d="M28.2067 7.64127H32.1109V24.786H28.2067V7.64127ZM30.1744 4.81592C29.4664 4.81592 28.873 4.59118 28.3941 4.1417C27.9152 3.6708 27.6757 3.09289 27.6757 2.40796C27.6757 1.72303 27.9152 1.15582 28.3941 0.706334C28.873 0.235445 29.4664 0 30.1744 0C30.8824 0 31.4758 0.224743 31.9548 0.674228C32.4337 1.10231 32.6731 1.64812 32.6731 2.31164C32.6731 3.01798 32.4337 3.61729 31.9548 4.10959C31.4967 4.58048 30.9032 4.81592 30.1744 4.81592Z" fill="#00CFFF"/>
<path d="M56.4441 24.786L56.4129 9.8887L49.2291 22.2175H47.4175L40.2337 10.0813V24.786H36.3607V2.31164H39.7027L48.3857 17.2089L56.9126 2.31164H60.2546L60.2859 24.786H56.4441Z" fill="#00CFFF"/>
<path d="M64.5674 7.64127H68.4716V24.786H64.5674V7.64127ZM66.5351 4.81592C65.8271 4.81592 65.2337 4.59118 64.7548 4.1417C64.2758 3.6708 64.0364 3.09289 64.0364 2.40796C64.0364 1.72303 64.2758 1.15582 64.7548 0.706334C65.2337 0.235445 65.8271 0 66.5351 0C67.2431 0 67.8365 0.224743 68.3154 0.674228C68.7944 1.10231 69.0338 1.64812 69.0338 2.31164C69.0338 3.01798 68.7944 3.61729 68.3154 4.10959C67.8573 4.58048 67.2639 4.81592 66.5351 4.81592Z" fill="#00CFFF"/>
<path d="M78.3711 25C77.2467 25 76.157 24.8359 75.102 24.5077C74.0609 24.1795 73.2349 23.7443 72.6241 23.2021L73.5611 21.0402C74.158 21.5254 74.8868 21.9249 75.7475 22.2389C76.622 22.5385 77.4966 22.6884 78.3711 22.6884C79.4539 22.6884 80.2591 22.51 80.7866 22.1533C81.3279 21.7965 81.5986 21.3256 81.5986 20.7406C81.5986 20.3125 81.4459 19.9629 81.1405 19.6918C80.849 19.4064 80.4742 19.1852 80.0161 19.0283C79.558 18.8713 78.9333 18.6929 78.1421 18.4931C77.0316 18.222 76.1292 17.9509 75.4352 17.6798C74.7549 17.4087 74.165 16.9877 73.6652 16.417C73.1794 15.8319 72.9364 15.0471 72.9364 14.0625C72.9364 13.2349 73.1516 12.4857 73.5819 11.8151C74.0262 11.1301 74.6855 10.5879 75.5601 10.1884C76.4485 9.78881 77.5313 9.58904 78.8084 9.58904C79.6968 9.58904 80.5714 9.7032 81.4321 9.93151C82.2927 10.1598 83.0354 10.488 83.6601 10.9161L82.8064 13.0779C82.1678 12.6926 81.5015 12.4001 80.8074 12.2003C80.1133 12.0006 79.44 11.9007 78.7876 11.9007C77.7187 11.9007 76.9205 12.0862 76.393 12.4572C75.8794 12.8282 75.6226 13.3205 75.6226 13.9341C75.6226 14.3622 75.7683 14.7118 76.0598 14.9829C76.3652 15.254 76.747 15.468 77.2051 15.625C77.6632 15.782 78.2878 15.9603 79.0791 16.1601C80.1619 16.417 81.0503 16.6881 81.7444 16.9735C82.4385 17.2446 83.0285 17.6655 83.5143 18.2363C84.0141 18.8071 84.2639 19.5776 84.2639 20.5479C84.2639 21.3756 84.0418 22.1247 83.5976 22.7954C83.1673 23.466 82.5079 24.0011 81.6195 24.4007C80.731 24.8002 79.6483 25 78.3711 25Z" fill="white"/>
<path d="M100.733 13.2277C102.135 13.2277 103.245 13.6487 104.064 14.4906C104.883 15.3182 105.293 16.5668 105.293 18.2363V24.786H102.69V18.5788C102.69 17.5799 102.475 16.8308 102.045 16.3313C101.614 15.8176 100.996 15.5608 100.191 15.5608C99.3167 15.5608 98.6157 15.8604 98.0882 16.4598C97.5607 17.0448 97.297 17.8867 97.297 18.9854V24.786H94.6941V18.5788C94.6941 17.5799 94.479 16.8308 94.0486 16.3313C93.6183 15.8176 93.0005 15.5608 92.1954 15.5608C91.307 15.5608 90.599 15.8533 90.0715 16.4384C89.5579 17.0234 89.3011 17.8724 89.3011 18.9854V24.786H86.6982V13.3562H89.1761V14.8116C89.5926 14.2979 90.1131 13.9055 90.7378 13.6344C91.3625 13.3633 92.0566 13.2277 92.8201 13.2277C93.653 13.2277 94.3887 13.3918 95.0273 13.72C95.6797 14.034 96.1934 14.5049 96.5682 15.1327C97.0263 14.5334 97.6162 14.0696 98.3381 13.7414C99.0599 13.399 99.8581 13.2277 100.733 13.2277Z" fill="white"/>
<path d="M112.867 13.2277C114.505 13.2277 115.754 13.6344 116.615 14.4478C117.489 15.2469 117.927 16.4598 117.927 18.0865V24.786H115.47V23.3947C115.15 23.8941 114.692 24.2794 114.095 24.5505C113.512 24.8074 112.804 24.9358 111.971 24.9358C111.138 24.9358 110.41 24.7931 109.785 24.5077C109.16 24.208 108.674 23.8014 108.327 23.2877C107.994 22.7597 107.828 22.1675 107.828 21.5111C107.828 20.4837 108.196 19.6632 108.931 19.0497C109.681 18.4218 110.854 18.1079 112.45 18.1079H115.324V17.9366C115.324 17.1376 115.088 16.524 114.616 16.0959C114.158 15.6678 113.471 15.4538 112.554 15.4538C111.93 15.4538 111.312 15.5537 110.701 15.7534C110.104 15.9532 109.598 16.2314 109.181 16.5882L108.161 14.6404C108.744 14.1838 109.445 13.8342 110.264 13.5916C111.083 13.349 111.951 13.2277 112.867 13.2277ZM112.513 22.988C113.165 22.988 113.741 22.8382 114.241 22.5385C114.755 22.2246 115.116 21.7822 115.324 21.2115V19.8844H112.638C111.138 19.8844 110.389 20.391 110.389 21.4041C110.389 21.8893 110.576 22.2745 110.951 22.5599C111.326 22.8453 111.846 22.988 112.513 22.988Z" fill="white"/>
<path d="M123.745 15.0257C124.495 13.8271 125.813 13.2277 127.701 13.2277V15.7748C127.479 15.732 127.278 15.7106 127.097 15.7106C126.084 15.7106 125.293 16.0174 124.724 16.631C124.154 17.2303 123.87 18.1007 123.87 19.2423V24.786H121.267V13.3562H123.745V15.0257Z" fill="white"/>
<path d="M137 24.1652C136.695 24.4221 136.32 24.6147 135.876 24.7432C135.445 24.8716 134.987 24.9358 134.501 24.9358C133.28 24.9358 132.336 24.6076 131.669 23.9512C131.003 23.2948 130.67 22.3388 130.67 21.083V15.5822H128.838V13.4418H130.67V10.8305H133.273V13.4418H136.25V15.5822H133.273V21.0188C133.273 21.5753 133.405 22.0034 133.668 22.3031C133.932 22.5885 134.314 22.7312 134.814 22.7312C135.397 22.7312 135.883 22.5742 136.271 22.2603L137 24.1652Z" fill="white"/>
</svg>
