<svg width="44" height="44" viewBox="0 0 44 44" fill="none" xmlns="http://www.w3.org/2000/svg">
<path d="M31 15H13C12.2046 15.0009 11.442 15.3172 10.8796 15.8796C10.3172 16.442 10.0009 17.2046 10 18V30.8571C10.0009 31.6525 10.3172 32.4151 10.8796 32.9775C11.442 33.54 12.2046 33.8563 13 33.8571H31C31.7954 33.8563 32.558 33.54 33.1204 32.9775C33.6828 32.4151 33.9992 31.6525 34 30.8571V18C33.9992 17.2046 33.6828 16.442 33.1204 15.8796C32.558 15.3172 31.7954 15.0009 31 15ZM30.2404 19.9623L22.5261 25.9623C22.3756 26.0793 22.1905 26.1428 22 26.1428C21.8095 26.1428 21.6244 26.0793 21.4739 25.9623L13.7596 19.9623C13.669 19.8939 13.5929 19.8081 13.5357 19.71C13.4785 19.6119 13.4414 19.5033 13.4265 19.3907C13.4116 19.2782 13.4192 19.1637 13.4489 19.0541C13.4786 18.9445 13.5298 18.8419 13.5995 18.7522C13.6692 18.6625 13.7561 18.5876 13.855 18.5318C13.9539 18.476 14.0629 18.4404 14.1757 18.4271C14.2885 18.4138 14.4028 18.423 14.512 18.4543C14.6212 18.4855 14.7231 18.5381 14.8118 18.6091L22 24.1998L29.1882 18.6091C29.368 18.4734 29.5939 18.4138 29.8172 18.4434C30.0405 18.4729 30.2432 18.5892 30.3814 18.767C30.5197 18.9448 30.5824 19.1699 30.556 19.3936C30.5296 19.6173 30.4162 19.8216 30.2404 19.9623Z" fill="#5ECCFA"/>
</svg>
