<svg width="540" height="95" viewBox="0 0 540 95" fill="none" xmlns="http://www.w3.org/2000/svg">
<path d="M540 34C540 15.2223 524.778 0 506 0H34C15.2223 0 0 15.2223 0 34V34C0 52.7777 15.2223 68 34 68H75.1647C76.7536 68 78.3469 68.2832 79.6638 69.1721C84.0627 72.1412 91.6882 80.7504 63.5589 95C85.428 95 100.998 82.413 108.675 74.4272C112.331 70.6244 117.259 68 122.534 68H506C524.778 68 540 52.7777 540 34V34Z" fill="#303137"/>
<path fill-rule="evenodd" clip-rule="evenodd" d="M34 1H506C524.225 1 539 15.7746 539 34C539 52.2254 524.225 67 506 67H122.534C116.923 67 111.75 69.7864 107.954 73.7342C100.88 81.0926 87.1065 92.3173 67.9099 93.8294C72.9326 91.0474 76.6061 88.4772 79.2302 86.1134C82.4872 83.1796 84.1855 80.511 84.7804 78.0949C86.0027 73.1309 82.4885 69.8722 80.2233 68.3433C78.6764 67.2992 76.8572 67 75.1647 67H34C15.7747 67 1 52.2254 1 34C1 15.7746 15.7746 1 34 1ZM65.5602 93.9641C91.317 80.3325 83.9551 72.0685 79.6638 69.1721C78.3469 68.2832 76.7536 68 75.1647 68H34C15.2224 68 0 52.7777 0 34C0 15.2223 15.2224 0 34 0H506C524.778 0 540 15.2223 540 34C540 52.7777 524.778 68 506 68H122.534C117.259 68 112.331 70.6244 108.675 74.4272C101.266 82.1343 86.5052 94.127 65.8257 94.9547C65.0778 94.9847 64.3222 95 63.5589 95C64.2472 94.6513 64.9141 94.306 65.5602 93.9641Z" fill="white" fill-opacity="0.27"/>
</svg>
