<svg width="344" height="61" viewBox="0 0 344 61" fill="none" xmlns="http://www.w3.org/2000/svg">
<path d="M344 21.7408C344 9.88118 334.386 0.26709 322.526 0.26709H21.4737C9.61411 0.26709 0 9.88118 0 21.7408C0 33.6004 9.61411 43.2145 21.4737 43.2145H47.8945C48.899 43.2145 49.9062 43.392 50.7415 43.9499C53.5426 45.8205 58.4243 51.2596 40.4893 60.2671C54.4319 60.2671 64.3551 52.3048 69.2418 47.2618C71.5625 44.8668 74.6798 43.2145 78.0147 43.2145H322.526C334.386 43.2145 344 33.6004 344 21.7408Z" fill="#303137"/>
<path fill-rule="evenodd" clip-rule="evenodd" d="M21.4737 0.902011H322.526C334.035 0.902011 343.365 10.2318 343.365 21.7408C343.365 33.2497 334.035 42.5795 322.526 42.5795H78.0147C74.4676 42.5795 71.1948 44.3339 68.7858 46.8199C64.2846 51.4651 55.5091 58.564 43.2731 59.5235C46.4683 57.7679 48.8052 56.1458 50.4745 54.654C52.5491 52.8 53.6305 51.113 54.0079 49.5843C54.7835 46.4421 52.5339 44.3834 51.0942 43.4219C50.1136 42.767 48.9644 42.5795 47.8945 42.5795H21.4737C9.96475 42.5795 0.634918 33.2497 0.634918 21.7408C0.634918 10.2318 9.96475 0.902011 21.4737 0.902011ZM41.7711 59.6092C58.1855 50.9943 53.4738 45.7745 50.7415 43.9499C49.9062 43.392 48.899 43.2145 47.8945 43.2145H21.4737C9.61411 43.2145 0 33.6004 0 21.7408C0 9.88118 9.61411 0.26709 21.4737 0.26709H322.526C334.386 0.26709 344 9.88118 344 21.7408C344 33.6004 334.386 43.2145 322.526 43.2145H78.0147C74.6798 43.2145 71.5625 44.8668 69.2418 47.2618C64.5261 52.1283 55.1203 59.7133 41.9384 60.2383C41.4604 60.2573 40.9773 60.2671 40.4893 60.2671C40.9303 60.0456 41.3574 59.8264 41.7711 59.6092Z" fill="white" fill-opacity="0.27"/>
</svg>
