<svg width="248" height="58" viewBox="0 0 248 58" fill="none" xmlns="http://www.w3.org/2000/svg">
<path d="M247.715 22.8469C247.715 10.505 237.71 0.5 225.368 0.5H22.3469C10.0051 0.5 3.05176e-05 10.505 3.05176e-05 22.8469C3.05176e-05 35.1887 10.0051 45.1937 22.3469 45.1937H34.4804C35.2093 45.1937 35.9402 45.3237 36.5443 45.7314C38.5622 47.0934 42.0603 51.0427 29.1565 57.5795C39.1885 57.5795 46.3309 51.8054 49.8528 48.1421C51.5299 46.3976 53.7902 45.1937 56.2101 45.1937H225.368C237.71 45.1937 247.715 35.1887 247.715 22.8469Z" fill="#303137"/>
<path fill-rule="evenodd" clip-rule="evenodd" d="M22.3469 0.958731H225.368C237.456 0.958731 247.256 10.7584 247.256 22.8469C247.256 34.9353 237.456 44.735 225.368 44.735H56.2101C53.6362 44.735 51.2631 46.0132 49.5221 47.8242C46.2768 51.1997 39.9585 56.3488 31.1524 57.0425C33.4565 55.7663 35.1416 54.5872 36.3454 53.5029C37.8395 52.157 38.6185 50.9329 38.8914 49.8246C39.4521 47.5474 37.8401 46.0525 36.8009 45.3512C36.0913 44.8722 35.2568 44.735 34.4804 44.735H22.3469C10.2584 44.735 0.458755 34.9353 0.458755 22.8469C0.458755 10.7584 10.2584 0.958731 22.3469 0.958731ZM30.0745 57.1042C41.89 50.851 38.5128 47.0601 36.5443 45.7314C35.9402 45.3237 35.2093 45.1937 34.4804 45.1937H22.3469C10.0051 45.1937 3.05176e-05 35.1887 3.05176e-05 22.8469C3.05176e-05 10.505 10.0051 0.5 22.3469 0.5H225.368C237.71 0.5 247.715 10.505 247.715 22.8469C247.715 35.1887 237.71 45.1937 225.368 45.1937H56.2101C53.7902 45.1937 51.5299 46.3976 49.8528 48.1421C46.4538 51.6776 39.6827 57.179 30.1963 57.5587C29.8533 57.5724 29.5066 57.5795 29.1565 57.5795C29.4722 57.4195 29.7782 57.2611 30.0745 57.1042Z" fill="white" fill-opacity="0.27"/>
</svg>
