<svg width="289" height="120" viewBox="0 0 289 120" fill="none" xmlns="http://www.w3.org/2000/svg">
<path d="M57.1851 53.2509C56.9456 53.2167 56.7062 53.2167 56.4668 53.2167C56.2274 53.2167 55.9538 53.2167 55.7485 53.2509L54.9961 46.0684C55.4749 46.0342 55.988 46 56.4668 46C56.9456 46 57.4587 46.0342 57.9375 46.0684L57.1851 53.2509Z" fill="#EBEBEB"/>
<path d="M54.2093 53.5925C53.9698 53.6609 53.7304 53.7635 53.5252 53.8319C53.2858 53.9345 53.0806 54.0371 52.8754 54.1397L49.3867 47.8123C49.8314 47.5729 50.2418 47.3677 50.7206 47.1624C51.1652 46.9572 51.6441 46.8204 52.0887 46.6494L54.2093 53.5925Z" fill="#EBEBEB"/>
<path d="M51.7818 54.9265C51.6108 55.0976 51.4056 55.2686 51.2346 55.4396C51.0636 55.6106 50.8925 55.7816 50.7557 55.9868L45.0781 51.5063C45.3859 51.1301 45.6938 50.7538 46.07 50.3776C46.412 50.0356 46.754 49.6936 47.1303 49.3857L51.7818 54.9265Z" fill="#EBEBEB"/>
<path d="M50.0372 57.1155C49.9346 57.3208 49.832 57.5602 49.7294 57.7996C49.6268 58.039 49.5584 58.2784 49.49 58.4836L42.5469 56.4657C42.6837 55.9869 42.8547 55.5422 43.0257 55.0634C43.1967 54.6188 43.4019 54.1741 43.6414 53.7295L50.0372 57.1155Z" fill="#EBEBEB"/>
<path d="M49.2509 59.7837C49.2167 60.0231 49.2167 60.2625 49.2167 60.5019C49.2167 60.7414 49.2167 61.015 49.2509 61.2202L42.0684 61.9726C42.0342 61.4938 42 60.9808 42 60.5019C42 60.0231 42.0342 59.5101 42.0684 59.0312L49.2509 59.7837Z" fill="#EBEBEB"/>
<path d="M49.5915 62.7246C49.6599 62.964 49.7625 63.2034 49.831 63.4087C49.9336 63.6481 50.0362 63.8533 50.1388 64.0585L43.8113 67.5472C43.5719 67.1025 43.3667 66.6921 43.1615 66.2133C42.9563 65.7686 42.8194 65.2898 42.6484 64.8452L49.5915 62.7246Z" fill="#EBEBEB"/>
<path d="M50.8924 65.1533C51.0634 65.3243 51.2344 65.5295 51.4054 65.7006C51.5764 65.8716 51.7474 66.0426 51.9526 66.1794L47.4721 71.857C47.0959 71.5492 46.7197 71.2414 46.3434 70.8651C46.0014 70.5231 45.6594 70.1811 45.3516 69.8049L50.8924 65.1533Z" fill="#EBEBEB"/>
<path d="M53.0804 66.9316C53.2856 67.0342 53.525 67.1369 53.7302 67.2395C53.9697 67.3421 54.2091 67.4105 54.4143 67.4789L52.3964 74.422C51.9175 74.2852 51.4729 74.1142 50.9941 73.9431C50.5494 73.7721 50.1048 73.5669 49.6602 73.3275L53.0804 66.9316Z" fill="#EBEBEB"/>
<path d="M55.6821 67.6162C55.9216 67.6504 56.161 67.6504 56.4004 67.6504C56.6398 67.6504 56.9134 67.6504 57.1186 67.6162L57.8711 74.7987C57.3923 74.8329 56.8792 74.8671 56.4004 74.8671C55.9216 74.8671 55.4085 74.8329 54.9297 74.7987L55.6821 67.6162Z" fill="#EBEBEB"/>
<path d="M58.6562 67.2738C58.8957 67.2054 59.1351 67.1028 59.3403 67.0344C59.5797 66.9318 59.7849 66.8292 59.9901 66.7266L63.513 73.0198C63.0684 73.2592 62.6579 73.4644 62.1791 73.6697C61.7345 73.8749 61.2556 74.0117 60.811 74.1827L58.6562 67.2738Z" fill="#EBEBEB"/>
<path d="M61.0859 65.9402C61.2569 65.7691 61.4622 65.5981 61.6332 65.4271C61.8042 65.2561 61.9752 65.0509 62.112 64.8799L67.7896 69.3262C67.4818 69.7024 67.174 70.0787 66.8319 70.4549C66.4899 70.7969 66.1137 71.1389 65.7717 71.4468L61.0859 65.9402Z" fill="#EBEBEB"/>
<path d="M62.8281 63.7509C62.9307 63.5457 63.0333 63.3063 63.1359 63.101C63.2386 62.8616 63.307 62.6564 63.3754 62.417L70.3185 64.4349C70.1817 64.9138 70.0106 65.3584 69.8396 65.8372C69.6686 66.2819 69.4634 66.7265 69.224 67.1711L62.8281 63.7509Z" fill="#EBEBEB"/>
<path d="M63.6484 61.186C63.6826 60.9466 63.6826 60.7072 63.6826 60.4678C63.6826 60.2284 63.6826 59.9547 63.6484 59.7495L70.8309 58.9971C70.8652 59.4759 70.8994 59.9889 70.8994 60.4678C70.8994 60.9466 70.8652 61.4597 70.8309 61.9385L63.6484 61.186Z" fill="#EBEBEB"/>
<path d="M63.2738 58.2102C63.2054 57.9708 63.1028 57.7314 63.0344 57.5262C62.9318 57.2868 62.8292 57.0815 62.7266 56.8763L69.054 53.3877C69.2934 53.8323 69.4986 54.2428 69.7039 54.7216C69.9091 55.1662 70.0459 55.6451 70.2169 56.0897L63.2738 58.2102Z" fill="#EBEBEB"/>
<path d="M61.9743 55.816C61.8033 55.645 61.6323 55.4397 61.4613 55.2687C61.2903 55.0977 61.1193 54.9267 60.9141 54.7899L65.3604 49.1123C65.7366 49.4201 66.1128 49.7279 66.4891 50.1042C66.8311 50.4462 67.1731 50.7882 67.4809 51.1644L61.9743 55.816Z" fill="#EBEBEB"/>
<path d="M59.7861 54.0372C59.5808 53.9346 59.3414 53.832 59.102 53.7294C58.8626 53.6268 58.6232 53.5584 58.418 53.49L60.4359 46.5469C60.9147 46.6837 61.3594 46.8547 61.8382 47.0257C62.2828 47.1967 62.7275 47.4019 63.1721 47.6413L59.7861 54.0372Z" fill="#EBEBEB"/>
<path d="M133.423 72.781H140.059V53.4224H149.498V48.2236H123.949V53.4224H133.423V72.781Z" fill="#EBEBEB"/>
<path fill-rule="evenodd" clip-rule="evenodd" d="M177.715 60.2624C177.715 67.5818 183.392 73.4304 193.038 73.4304C202.58 73.4304 208.36 67.5818 208.36 60.2624C208.36 52.7379 202.683 47.4365 193.038 47.4365C183.358 47.4365 177.715 52.7379 177.715 60.2624ZM185.376 60.7755C185.376 56.3292 187.018 52.4301 192.969 52.3617C198.989 52.2933 201.383 56.2265 201.041 60.6387C200.733 64.743 198.886 68.3 192.969 68.3C187.189 68.3 185.376 64.743 185.376 60.7755Z" fill="#EBEBEB"/>
<path d="M210.309 72.78H216.944V57.1153H217.046L229.77 72.78H237.431V48.1885L230.693 48.2227V64.2294H230.625L217.867 48.2227H210.309V72.78Z" fill="#EBEBEB"/>
<path d="M74.2852 72.8142H95.1144V67.5813H80.9204V48.1885H74.2852V72.8142Z" fill="#EBEBEB"/>
<path d="M122.479 48.1885H115.844V63.2376C115.844 66.9998 113.723 68.4705 108.832 68.4705C104.044 68.4705 101.855 66.9998 101.855 63.2376V48.1885H95.2539V63.2376C95.2539 70.1123 100.453 73.4299 108.832 73.4299C117.178 73.4299 122.445 70.0781 122.445 63.2376V48.1885H122.479Z" fill="#EBEBEB"/>
<path fill-rule="evenodd" clip-rule="evenodd" d="M150.937 72.8144H157.093V63.2377H167.012C169.577 63.2035 170.056 64.469 170.466 67.0683C170.979 70.2834 171.424 72.917 173.271 72.8144H178.47C176.965 73.1222 176.52 68.8127 176.212 66.7947C175.357 61.3907 174.434 61.1171 171.903 61.0145L171.868 60.9119C175.049 59.92 177.067 57.4574 176.999 54.4818C176.896 50.5143 174.16 47.8123 167.696 48.2228H150.902V72.8144H150.937ZM156.99 53.2505H165.199C168.243 53.2505 170.398 53.6952 170.398 56.1236C170.398 58.6887 168.277 59.0308 165.199 59.0308H156.99V53.2505Z" fill="#EBEBEB"/>
<path fill-rule="evenodd" clip-rule="evenodd" d="M247.215 69.3265C247.215 67.4454 245.676 65.9062 243.795 65.9062C241.914 65.9062 240.375 67.4454 240.375 69.3265C240.375 71.2076 241.914 72.7467 243.795 72.7467C245.676 72.7125 247.215 71.2076 247.215 69.3265ZM246.805 69.3265C246.805 71.0024 245.437 72.3363 243.795 72.3363C242.119 72.3363 240.785 71.0024 240.785 69.3265C240.785 67.6506 242.119 66.3167 243.795 66.3167C245.437 66.3167 246.805 67.6506 246.805 69.3265ZM242.53 71.105H243.009V69.4975H244.24C245.027 69.4975 244.787 70.1816 244.89 70.6262L244.958 71.105H245.54C245.334 70.763 245.403 70.6946 245.369 70.2158C245.3 69.5659 245.3 69.4975 244.924 69.2581C245.3 68.9845 245.437 68.8135 245.437 68.3346C245.403 67.4796 244.821 67.377 244.24 67.377H242.564V71.105H242.53ZM244.206 67.7874C244.513 67.7874 244.958 67.8558 244.89 68.5056C244.856 68.9845 244.513 69.0871 244.206 69.0871H243.009V67.7874H244.206Z" fill="#EBEBEB"/>
<path d="M242.527 71.1051V67.3428H244.203C244.785 67.3428 245.366 67.4454 245.4 68.3005C245.435 68.7793 245.264 68.9503 244.887 69.2239C245.264 69.4633 245.298 69.5317 245.332 70.1816C245.366 70.6946 245.298 70.763 245.503 71.0709H244.922L244.853 70.592C244.785 70.1474 244.99 69.4633 244.203 69.4633H242.972V71.0709H242.527V71.1051ZM244.203 67.7874H243.006V69.0871H244.203C244.545 69.0871 244.853 68.9845 244.887 68.5057C244.956 67.8558 244.511 67.7874 244.203 67.7874Z" fill="#EBEBEB"/>
</svg>
