<svg width="289" height="120" viewBox="0 0 289 120" fill="none" xmlns="http://www.w3.org/2000/svg">
<path fill-rule="evenodd" clip-rule="evenodd" d="M117.081 35.5444C116.871 35.8382 116.7 36.1173 116.7 36.1647C116.7 36.2122 116.16 37.182 115.501 38.3199C114.842 39.4578 114.303 40.4277 114.303 40.4751C114.303 40.5225 114.15 40.781 113.962 41.0495C113.775 41.3179 113.37 41.9925 113.062 42.5486C112.754 43.1048 112.151 44.1804 111.722 44.9388C111.292 45.6972 110.689 46.7728 110.381 47.3289C110.074 47.8851 109.668 48.5597 109.481 48.8281C109.294 49.0965 109.14 49.355 109.14 49.4025C109.14 49.4501 108.186 51.1609 107.02 53.2044C105.854 55.248 104.9 56.9687 104.9 57.0281C104.9 57.0877 104.787 57.267 104.65 57.4265C104.512 57.5863 104.11 58.2546 103.756 58.9119C103.403 59.5692 102.922 60.4379 102.689 60.8424C102.455 61.2469 102.015 62.0329 101.71 62.5891C101.406 63.1452 101.003 63.8198 100.816 64.0882C100.628 64.3567 100.475 64.6201 100.475 64.6736C100.475 64.7272 100.217 65.184 99.9027 65.6891C99.588 66.194 99.3853 66.6959 99.4526 66.8044C99.5301 66.9294 100.504 67.0016 102.112 67.0016C104.525 67.0016 104.666 66.9812 105.005 66.5828C105.347 66.1807 106.056 64.9731 106.459 64.1074C106.565 63.8807 106.714 63.6944 106.79 63.6937C106.866 63.693 106.928 63.6132 106.928 63.5165C106.928 63.4197 107.188 62.9027 107.506 62.3673C107.824 61.8319 108.374 60.8562 108.728 60.1989C109.082 59.5416 109.451 58.9042 109.548 58.7825C109.645 58.6606 109.869 58.2883 110.046 57.9551C110.79 56.5545 111.616 55.1107 111.934 54.6549C112.122 54.3865 112.275 54.116 112.275 54.0541C112.275 53.9919 112.607 53.3964 113.012 52.7306C113.418 52.0647 113.75 51.4907 113.75 51.455C113.75 51.4192 114.01 50.952 114.329 50.4166C114.647 49.8812 115.116 49.071 115.369 48.6159C117.205 45.3262 117.975 44.1752 117.997 44.6865C118.001 44.7746 118.002 49.6735 117.999 55.5725C117.996 62.5481 118.06 66.421 118.183 66.6499C118.356 66.9711 118.601 67.0016 121.014 67.0016H123.655L125.505 63.7382C126.522 61.9434 127.518 60.1851 127.717 59.8312C127.916 59.4773 128.34 58.7498 128.658 58.2144C128.977 57.679 129.237 57.1954 129.237 57.1395C129.237 57.0838 129.39 56.8185 129.578 56.5501C129.765 56.2817 130.18 55.5865 130.499 55.005C130.819 54.4234 131.342 53.4721 131.662 52.8906C131.982 52.3092 132.397 51.6139 132.584 51.3455C132.771 51.077 132.924 50.8145 132.924 50.7619C132.924 50.6852 134.417 48.0005 135.954 45.3113C136.097 45.0612 136.304 44.8268 136.413 44.7904C136.554 44.7435 136.612 47.9125 136.612 55.6424C136.612 63.8889 136.666 66.6144 136.833 66.781C136.982 66.9296 137.824 67.0016 139.411 67.0016C141.702 67.0016 141.77 66.9902 141.868 66.588C141.923 66.3604 141.945 59.1831 141.917 50.6383L141.867 35.1024L139.071 35.0517L136.275 35.0011L135.89 35.5398C135.679 35.836 135.506 36.1241 135.506 36.1798C135.506 36.2357 135.245 36.7192 134.927 37.2546C133.755 39.2249 132.592 41.2717 131.5 43.2841C131.143 43.9413 130.737 44.6097 130.597 44.7694C130.458 44.929 130.343 45.1195 130.343 45.1929C130.343 45.266 129.876 46.1283 129.305 47.1088C128.735 48.0894 128.06 49.264 127.805 49.7191C127.551 50.1741 127.064 51.0267 126.723 51.6135C126.382 52.2004 126.103 52.7191 126.103 52.7661C126.103 52.8134 125.908 53.1605 125.669 53.5378C125.431 53.9149 124.92 54.8027 124.533 55.5106C123.862 56.7363 123.602 57.0642 123.291 57.0706C123.215 57.0721 123.153 52.1092 123.153 46.0419V35.0105H120.308H117.462L117.081 35.5444ZM148.088 50.955L148.135 66.9097L150.828 66.9605C152.842 66.9983 153.568 66.952 153.707 66.7766C153.888 66.5488 154.327 65.7829 155.473 63.6922C155.778 63.136 156.181 62.4615 156.368 62.193C156.555 61.9246 156.709 61.6661 156.709 61.6187C156.709 61.5711 157.663 59.8603 158.829 57.8167C159.995 55.7731 160.949 54.0524 160.949 53.993C160.949 53.9334 161.062 53.7542 161.199 53.5946C161.337 53.4348 161.739 52.7665 162.093 52.1092C162.446 51.4519 162.927 50.5832 163.16 50.1787C163.394 49.7742 163.834 48.9882 164.139 48.4321C164.443 47.8759 164.83 47.214 164.997 46.9612C165.164 46.7084 165.504 46.1087 165.752 45.6282C166 45.1478 166.301 44.7549 166.421 44.7549C166.587 44.7549 166.643 47.4021 166.653 55.713C166.66 61.7398 166.712 66.7454 166.768 66.8364C166.825 66.9272 168.068 67.0016 169.531 67.0016H172.191L172.635 66.3122C173.004 65.7413 174.469 63.2111 176.388 59.8312C176.589 59.4773 177.014 58.7498 177.332 58.2144C177.651 57.679 177.911 57.1954 177.911 57.1395C177.911 57.0838 178.065 56.8185 178.252 56.5501C178.439 56.2817 178.842 55.6071 179.147 55.0509C179.662 54.1099 179.953 53.5962 180.837 52.0632C181.027 51.7347 182.489 49.1905 184.088 46.4096C185.686 43.6288 187.149 41.0846 187.338 40.756C188.223 39.223 188.513 38.7093 189.029 37.7683C189.334 37.2122 189.725 36.5503 189.899 36.2975C190.073 36.0447 190.274 35.6518 190.345 35.4242L190.474 35.0105H187.622H184.77L184.402 35.7147C184.2 36.1019 183.001 38.2324 181.739 40.449C180.476 42.6656 179.234 44.8514 178.98 45.3065C178.725 45.7615 178.256 46.5718 177.937 47.1072C177.619 47.6426 177.358 48.1261 177.358 48.182C177.358 48.2377 177.205 48.503 177.018 48.7715C176.83 49.0399 176.427 49.7145 176.123 50.2706C175.098 52.1388 174.544 53.1191 174.408 53.3043C174.334 53.4054 174.003 53.9846 173.672 54.5913C173.342 55.198 172.901 56.0048 172.692 56.3839C171.835 57.9386 171.827 57.8393 171.827 46.0419V35.0105H168.988H166.148L164.445 37.9982C163.509 39.6415 162.61 41.234 162.447 41.5374C162.284 41.8408 162.059 42.2131 161.946 42.3648C161.832 42.5165 161.45 43.1783 161.096 43.8356C160.742 44.4929 160.274 45.3411 160.056 45.7202C159.837 46.0995 159.493 46.6992 159.29 47.0531C158.429 48.5558 158.101 49.1259 157.6 49.9948C157.308 50.5005 156.817 51.3692 156.509 51.9254C156.201 52.4815 155.758 53.2675 155.524 53.672C155.291 54.0765 154.828 54.9038 154.495 55.5106C153.792 56.7913 153.589 57.0734 153.369 57.0734C153.28 57.0734 153.187 52.1552 153.161 46.0879L153.113 35.1024L150.577 35.0513L148.041 35L148.088 50.955ZM99.3227 70.9342C99.0249 71.1601 99 71.7413 99 78.4547C99 85.3456 99.0179 85.736 99.3376 85.8371C99.5234 85.8959 120.181 85.9636 145.244 85.9875C183.052 86.0235 190.829 85.9891 190.908 85.786C191.04 85.4407 191.026 71.3221 190.892 70.9748C190.793 70.7178 186.243 70.6893 145.214 70.6895C107.562 70.6895 99.5893 70.7319 99.3227 70.9342ZM106.628 73.5745C106.744 73.9768 107.254 76.168 107.515 77.3896C107.623 77.8952 107.784 78.5488 107.873 78.8419C107.962 79.1351 108.034 79.6108 108.034 79.899C108.034 80.8928 108.367 80.4196 108.667 78.9983C108.833 78.2147 109.044 77.2425 109.138 76.838C109.231 76.4335 109.403 75.6475 109.521 75.0914C109.929 73.1636 109.853 73.2305 111.583 73.2914L113.104 73.3447V78.5847V83.8246H112.09H111.076L111.026 80.745C110.996 78.8998 110.903 77.6654 110.795 77.6654C110.696 77.6654 110.615 77.8297 110.615 78.0305C110.615 78.362 110.518 78.8457 110.057 80.7909C109.973 81.1449 109.789 81.9722 109.647 82.6295L109.39 83.8246L108.42 83.8807C107.275 83.947 107.015 83.7764 106.861 82.8566C106.797 82.4789 106.662 81.777 106.56 81.2966C106.458 80.8161 106.292 80.0303 106.19 79.5499C106.088 79.0695 105.953 78.3681 105.889 77.991C105.645 76.5345 105.522 77.5889 105.601 80.4646C105.696 83.9298 105.678 83.9737 104.223 83.8812L103.333 83.8246L103.284 78.7711C103.257 75.9917 103.275 73.613 103.324 73.4852C103.386 73.3232 103.886 73.2528 104.974 73.2528C106.302 73.2528 106.548 73.3008 106.628 73.5745ZM122.139 74.3559V75.3672L119.604 75.4183L117.068 75.4694V76.378V77.2866L119.419 77.3381L121.77 77.3896L121.825 78.3493L121.881 79.3089L119.521 79.3605L117.161 79.412L117.106 80.5562L117.051 81.7003L119.779 81.7512L122.507 81.8022L122.567 82.4251C122.6 82.7678 122.577 83.2453 122.516 83.4861L122.406 83.9241L118.677 83.8744L114.948 83.8246L114.899 78.7711C114.872 75.9917 114.891 73.6113 114.941 73.4813C115.012 73.2975 115.823 73.2559 118.585 73.2947L122.139 73.3447V74.3559ZM129.44 73.5821C129.747 74.0719 132.891 83.6181 132.798 83.7786C132.754 83.8546 132.231 83.9165 131.636 83.9165C130.607 83.9165 130.541 83.8884 130.265 83.3366C130.105 83.0178 129.975 82.6207 129.975 82.4541C129.975 81.8755 129.56 81.7102 128.107 81.7102C126.644 81.7102 126.103 81.9397 126.103 82.5598C126.103 82.7093 125.976 83.0757 125.821 83.3741C125.563 83.8735 125.461 83.9165 124.542 83.9165C123.993 83.9165 123.495 83.8386 123.436 83.7435C123.352 83.6073 125.488 77.0467 126.658 73.8503C126.873 73.2613 126.893 73.2528 128.055 73.2528C128.988 73.2528 129.277 73.3214 129.44 73.5821ZM138.087 76.5622L139.838 79.7797L139.931 76.5622L140.023 73.3447H141.037H142.051V78.5847V83.8246L141.02 83.8788C140.34 83.9147 139.925 83.8522 139.8 83.695C139.546 83.3754 138.262 81.0722 136.927 78.5448C136.622 77.9667 136.299 77.5392 136.209 77.5948C136.118 77.6505 136.055 79.0086 136.068 80.6133C136.081 82.2179 136.038 83.6176 135.972 83.7236C135.772 84.0458 134.088 83.964 133.958 83.6257C133.81 83.2412 133.813 73.9206 133.961 73.5354C134.054 73.2954 134.3 73.2471 135.206 73.2907L136.335 73.3447L138.087 76.5622ZM150.771 73.7584C150.876 74.0364 151.01 74.5536 151.068 74.9075C151.127 75.2614 151.259 75.9233 151.362 76.3784C151.465 76.8334 151.597 77.4953 151.655 77.8492C151.713 78.2032 151.857 78.7409 151.974 79.0443L152.188 79.5959L152.313 78.8604C152.381 78.456 152.521 77.67 152.622 77.1138C152.724 76.5576 152.889 75.6062 152.99 74.9994C153.285 73.2162 153.274 73.2285 154.552 73.2907C155.864 73.3541 155.748 73.1305 156.347 76.7461C156.841 79.7268 156.949 80.0016 157.214 78.9395C157.325 78.4914 157.517 77.6286 157.641 77.0219C157.764 76.4151 157.999 75.3396 158.163 74.6317L158.46 73.3447H159.566C160.804 73.3447 160.814 73.3627 160.398 74.8156C160.282 75.2201 160.115 75.8406 160.027 76.1945C159.939 76.5484 159.773 77.169 159.658 77.5734C159.461 78.2686 159.335 78.7558 158.935 80.3773C158.304 82.9349 158.088 83.6565 157.917 83.7759C157.628 83.9768 156.01 83.9446 155.88 83.7352C155.819 83.6356 155.681 83.0772 155.575 82.4942C155.468 81.9114 155.309 81.0621 155.222 80.6071C155.135 80.152 154.983 79.2931 154.885 78.6983C154.681 77.4681 154.312 76.8794 154.312 77.7851C154.312 78.0936 154.237 78.5858 154.146 78.879C154.055 79.1721 153.879 80.0325 153.754 80.7909C153.629 81.5494 153.426 82.5422 153.302 82.9972L153.076 83.8246L152.138 83.8797C150.993 83.9472 151.041 84.0211 150.262 80.9748C149.632 78.5089 149.168 76.7389 148.703 75.0364C148.225 73.2866 148.24 73.2528 149.496 73.2528C150.509 73.2528 150.592 73.2859 150.771 73.7584ZM169.205 73.5745C169.397 73.9671 169.386 74.9154 169.186 75.2293C169.082 75.3927 168.386 75.4591 166.777 75.4591C165.532 75.4591 164.478 75.4946 164.434 75.538C164.391 75.5815 164.385 75.9952 164.422 76.4572L164.489 77.2977H166.588C168.643 77.2977 168.688 77.3065 168.796 77.7351C168.856 77.9757 168.879 78.41 168.845 78.7003L168.785 79.2282L166.58 79.3201L164.375 79.412L164.394 80.5152L164.412 81.6183L166.875 81.7102L169.338 81.8022V82.8134V83.8246H165.743H162.147L162.098 78.7711C162.071 75.9917 162.089 73.613 162.139 73.4852C162.206 73.3094 163.06 73.2528 165.638 73.2528C168.703 73.2528 169.064 73.2853 169.205 73.5745ZM173.381 73.5602C173.446 73.7294 173.49 75.6115 173.478 77.743L173.457 81.6183L175.73 81.7102L178.004 81.8022L178.1 82.5376C178.293 83.9985 178.47 83.9305 174.616 83.8746L171.182 83.8246L171.132 78.7711C171.106 75.9917 171.124 73.613 171.173 73.4852C171.317 73.1107 173.233 73.1758 173.381 73.5602ZM181.925 77.522L181.974 81.6994L184.322 81.7507L186.669 81.8022V82.8134V83.8246L183.235 83.8746L179.8 83.9244L179.688 83.5069C179.54 82.9546 179.538 73.9202 179.686 73.5352C179.777 73.298 180.016 73.2471 180.838 73.2903L181.875 73.3447L181.925 77.522ZM127.77 77.3497C127.643 77.7761 127.465 78.3151 127.374 78.5473C127.015 79.465 127.143 79.6878 128.028 79.6878C128.478 79.6878 128.885 79.6255 128.932 79.5494C128.979 79.4732 128.91 79.0976 128.778 78.7143C128.646 78.3311 128.484 77.7345 128.419 77.3883C128.248 76.4778 128.034 76.4651 127.77 77.3497Z" fill="#EBEBEB"/>
</svg>
