<svg width="289" height="120" viewBox="0 0 289 120" fill="none" xmlns="http://www.w3.org/2000/svg">
<path d="M90.3744 51.4299L88.1281 59.5873C87.8616 60.5737 87.6713 61.4084 87.519 62.2811C87.3667 61.4464 87.2525 60.8773 86.9479 59.6631L84.8158 51.4299H80.5517L78.9907 67.8964H82.303L82.8741 59.2837C82.9502 58.2593 82.9883 57.3108 82.9883 56.3243C83.1406 57.2729 83.4452 58.449 83.6356 59.2458L85.9961 67.8964H88.8135L91.4405 58.9043C91.7451 57.9179 91.8593 57.3108 92.0496 56.3623C92.0496 57.2349 92.0877 58.0696 92.1639 59.094L92.773 67.8964H96.0473L94.5625 51.4299H90.3744ZM105.68 65.6199C104.88 65.6199 104.233 65.4302 103.7 65.0508C102.71 64.3299 102.215 62.5467 102.215 59.739C102.215 57.7661 102.482 56.2864 103.053 55.224C103.548 54.3514 104.499 53.7823 105.604 53.7823C107.355 53.7823 108.231 55.0343 108.497 55.869C108.802 56.7796 108.916 57.9937 108.916 59.7011C108.954 63.8746 107.964 65.6199 105.68 65.6199ZM105.68 51.2402C104.461 51.2402 103.243 51.5438 102.253 52.037C99.8926 53.327 98.522 56.1726 98.522 59.739C98.522 62.1673 99.1693 64.254 100.426 65.8475C101.682 67.479 103.319 68.1619 105.794 68.1619C107.165 68.1619 108.116 67.9343 109.106 67.4031C111.505 66.1131 112.799 63.3055 112.799 59.5873C112.799 54.4273 110.058 51.2402 105.68 51.2402ZM123.879 58.1834C123.917 59.3217 124.031 61.4464 124.145 62.6984C123.802 61.5223 123.155 59.777 122.356 58.0317L119.196 51.4299H115.502V67.8964H118.701L118.586 60.8773C118.548 59.5114 118.548 57.5764 118.434 56.2105C118.739 57.2349 119.729 59.5493 120.68 61.5981L123.498 67.8964H126.962V51.4299H123.802L123.879 58.1834ZM130.96 67.8964H134.425V51.4299H130.96V67.8964ZM136.823 54.1996H140.859V67.9343H144.247V54.1996H148.207L148.74 51.4679H136.823V54.1996ZM155.974 65.6199C155.174 65.6199 154.527 65.4302 153.994 65.0508C153.004 64.3299 152.509 62.5467 152.509 59.739C152.509 57.7661 152.776 56.2864 153.347 55.224C153.804 54.3514 154.794 53.7823 155.898 53.7823C157.649 53.7823 158.525 55.0343 158.791 55.869C159.096 56.7796 159.21 57.9937 159.21 59.7011C159.248 63.8746 158.258 65.6199 155.974 65.6199ZM155.974 51.2402C154.756 51.2402 153.537 51.5438 152.547 52.037C150.187 53.327 148.816 56.1726 148.816 59.739C148.816 62.1673 149.463 64.254 150.72 65.8475C151.976 67.479 153.613 68.1619 156.088 68.1619C157.459 68.1619 158.411 67.9343 159.4 67.4031C161.799 66.1131 163.093 63.3055 163.093 59.5873C163.055 54.4273 160.352 51.2402 155.974 51.2402ZM170.137 58.5629H169.033V54.1237H170.213C171.013 54.1237 171.698 54.1996 172.079 54.3514C172.878 54.617 173.259 55.3379 173.259 56.3623C173.259 57.0452 173.031 57.6523 172.612 58.0317C172.193 58.4111 171.584 58.5629 170.137 58.5629ZM173.107 60.8393C175.163 60.8014 176.8 58.7526 176.8 56.2864C176.8 53.4029 174.858 51.4679 171.964 51.4679H165.797V67.9343H169.071V61.029C169.299 61.067 169.414 61.1049 169.604 61.1808C170.213 61.4464 170.708 62.2431 172.345 65.2025C172.992 66.3787 173.259 66.7961 173.906 67.8964H177.828C177.828 67.8964 174.82 62.6984 173.868 61.4843C173.564 61.2187 173.449 61.067 173.107 60.8393ZM188.755 61.2567C189.097 60.1564 189.326 59.3976 189.63 58.1834C189.935 56.9693 190.43 54.9964 190.43 54.9964C190.43 54.9964 190.925 57.159 191.077 57.9179C191.42 59.5114 191.991 61.2187 191.991 61.2187L188.755 61.2567ZM188.755 51.392L183.348 67.8964H186.813L187.993 63.9884H192.828L194.009 67.8964H197.587L192.371 51.392H188.755ZM207.486 61.9776C207.486 62.8502 207.486 63.0778 207.448 63.4573C207.296 64.6714 206.382 65.3923 204.936 65.3923C203.831 65.3923 203.07 64.9749 202.689 64.254C202.499 63.9125 202.423 63.3055 202.423 62.2811V51.4679H199.034V62.9261C199.034 64.5196 199.187 65.1646 199.758 66.0373C200.671 67.479 202.537 68.2378 205.05 68.2378C208.629 68.2378 210.228 66.4546 210.646 65.1267C210.875 64.4058 210.913 64.1023 210.913 62.5467V51.4679H207.524V61.9776H207.486ZM219.898 65.2025H218.109V54.0479H219.632C220.926 54.0479 221.688 54.5032 222.259 55.4138C222.906 56.514 223.096 58.1076 223.096 60.0426C223.096 63.5331 222.106 65.2025 219.898 65.2025ZM220.964 51.5438C220.317 51.5058 219.022 51.4679 218.071 51.4679H214.758V67.9343H218.794C219.784 67.9343 220.545 67.8964 221.155 67.8584C222.716 67.7446 224.162 66.834 225.19 65.5061C226.294 64.0264 226.865 62.0534 226.865 59.8149C226.865 56.8555 226.142 54.7308 224.619 53.2511C223.553 52.1888 222.373 51.6576 220.964 51.5438ZM229.873 67.8964H233.338V51.4299H229.873V67.8964ZM243.389 65.6199C242.59 65.6199 241.942 65.4302 241.409 65.0508C240.419 64.3299 239.924 62.5467 239.924 59.739C239.924 57.7661 240.191 56.2864 240.762 55.224C241.219 54.3514 242.209 53.7823 243.313 53.7823C245.064 53.7823 245.94 55.0343 246.206 55.869C246.511 56.7796 246.625 57.9937 246.625 59.7011C246.663 63.8746 245.711 65.6199 243.389 65.6199ZM243.389 51.2402C242.171 51.2402 240.952 51.5438 239.962 52.037C237.602 53.327 236.231 56.1726 236.231 59.739C236.231 62.1673 236.879 64.254 238.135 65.8475C239.391 67.479 241.029 68.1619 243.503 68.1619C244.874 68.1619 245.826 67.9343 246.816 67.4031C249.214 66.1131 250.509 63.3055 250.509 59.5873C250.509 54.4273 247.805 51.2402 243.389 51.2402ZM46.6669 53.2891C47.6568 53.2891 48.7609 53.5167 49.865 53.934V68.124H54.7383V53.934C55.8424 53.5167 56.9084 53.2891 57.9364 53.2891C61.2107 53.2891 63.0382 55.6414 63.1143 57.8799C63.1905 61.7879 61.4391 63.5331 58.5456 66.4546L58.0887 66.9099V68.124H66.3124V66.7961H60.5254C61.4391 66.189 62.8097 65.1267 63.99 63.9505C66.0459 61.8637 67.0358 59.8529 66.9977 57.9937C66.8455 52.9476 62.1244 51.7714 62.0863 51.7714C62.0483 51.7714 60.868 51.3541 59.1547 51.3541C57.5557 51.3541 56.0708 51.6955 54.7383 52.4164V51.5058H49.8269V52.4164C48.4944 51.7335 47.0095 51.392 45.4105 51.392C43.6972 51.392 42.5169 51.8094 42.4789 51.8094C42.4408 51.8094 37.6817 53.0235 37.5675 58.0696C37.5294 59.8529 38.5193 61.7878 40.4991 63.8367C41.7555 65.1267 43.2784 66.2649 44.2302 66.872H38.2528V68.1999H46.4765V66.9858L46.0196 66.5305C43.1261 63.609 41.3747 61.8637 41.4509 57.9558C41.527 55.6414 43.3545 53.2891 46.6669 53.2891Z" fill="#EBEBEB"/>
<path d="M256.714 59.8161C256.714 67.8217 253.554 73.4749 247.348 76.6999C242.627 79.1281 237.792 79.1661 237.716 79.1661H61.9716C69.1293 75.5996 74.0406 68.239 74.0406 59.7402C74.0406 51.2414 69.0912 43.8809 61.9335 40.3144H237.678C245.521 40.3144 251.117 43.5394 254.239 49.8376C256.638 54.6561 256.676 59.5885 256.676 59.6264C256.714 59.6264 256.714 59.8161 256.714 59.8161ZM32.8078 59.7023C32.8078 49.0029 41.5645 40.2765 52.3011 40.2765C63.0376 40.2765 71.7944 49.0029 71.7944 59.7023C71.7944 70.3637 63.1138 79.0522 52.4534 79.1281H52.2249C41.5265 79.0902 32.8078 70.4017 32.8078 59.7023ZM256.333 48.8891C253.897 43.9188 248.681 38 237.678 38H52.2249C40.2701 38.0379 30.5234 47.7509 30.5234 59.7023C30.5234 71.6537 40.2701 81.4046 52.3011 81.4046C52.3392 81.4046 52.4153 81.4046 52.4534 81.4046H237.716C237.944 81.4046 243.084 81.3666 248.3 78.7108C253.173 76.2446 258.998 70.9329 258.998 59.7782V59.6264C258.96 59.4367 258.96 54.2008 256.333 48.8891Z" fill="#EBEBEB"/>
</svg>
