<svg width="289" height="120" viewBox="0 0 289 120" fill="none" xmlns="http://www.w3.org/2000/svg">
<path fill-rule="evenodd" clip-rule="evenodd" d="M66.2655 50.2558C63.7362 50.9836 62.1418 52.7788 61.9775 55.0844C61.7399 58.4176 63.4256 60.0178 68.5001 61.2762C72.523 62.2739 73.6856 62.9087 74.1598 64.3672C74.6977 66.0205 73.8416 67.7266 71.9852 68.7009C71.2377 69.0932 70.6415 69.1966 69.1914 69.1856C66.9734 69.1685 65.3656 68.6118 63.5986 67.2482C62.9306 66.7329 62.3084 66.3169 62.216 66.324C62.1234 66.3312 61.8121 66.6401 61.524 67.0107L61 67.6843L62.072 68.5145C66.4234 71.8858 72.9397 71.8019 75.2272 68.3452C77.0537 65.5856 76.246 62.2458 73.4137 60.8458C72.739 60.5123 70.9757 59.9281 69.4951 59.5472C65.0474 58.4034 63.8913 57.5556 63.8913 55.4372C63.8913 53.924 64.395 53.1323 65.8682 52.3308C66.7741 51.8377 67.1167 51.7868 68.9609 51.8698C71.0929 51.9656 72.4802 52.4592 73.9022 53.6276L74.461 54.0865L74.9947 53.4431C75.2883 53.0891 75.5284 52.6972 75.5284 52.5721C75.5284 52.2396 73.8695 51.1805 72.4767 50.6233C70.9395 50.0086 67.7753 49.8213 66.2655 50.2558ZM90.8797 50.1898C88.2518 50.8583 85.481 53.234 84.2825 55.8459C81.7687 61.3253 83.8843 67.6319 89.0729 70.1257C90.5465 70.8342 90.7571 70.8704 93.3873 70.8704C96.009 70.8704 96.2319 70.8323 97.6788 70.1367C101.741 68.1839 103.838 64.4628 103.59 59.6496C103.488 57.6727 103.377 57.2112 102.63 55.6771C101.539 53.4375 100.076 51.9612 97.9175 50.9212C96.4054 50.1924 95.9844 50.0972 93.9989 50.0336C92.7753 49.9944 91.3717 50.0647 90.8797 50.1898ZM196.001 50.3811C191.548 51.8754 188.899 55.682 188.907 60.5734C188.915 65.3934 191.603 69.237 195.89 70.5583C198.243 71.2836 201.407 71.1005 203.447 70.121C205.028 69.3619 207.106 67.7724 207.107 67.3207C207.108 67.1687 206.811 66.8295 206.448 66.5669L205.786 66.0892L205.353 66.5781C204.043 68.0544 201.147 69.3506 199.158 69.3506C196.805 69.3506 193.802 67.7853 192.501 65.8802C189.914 62.0931 190.365 56.9425 193.552 53.8721C195.111 52.3706 196.776 51.7349 199.167 51.729C200.755 51.7253 201.234 51.8263 202.52 52.4368C203.344 52.8284 204.41 53.4971 204.888 53.9229L205.757 54.6968L206.454 53.9902L207.15 53.2834L206.137 52.4412C205.579 51.9778 204.412 51.2612 203.543 50.8482C202.154 50.1889 201.681 50.0884 199.639 50.0191C197.823 49.9574 197.028 50.0364 196.001 50.3811ZM111.707 60.4658V70.7535H112.629H113.551V62.2194C113.551 57.5256 113.632 53.6853 113.731 53.6853C113.83 53.6853 116.948 57.5256 120.66 62.2194C126.769 69.9452 127.472 70.7535 128.084 70.7535H128.76V60.4658V50.1781H127.841H126.922L126.861 58.6264L126.801 67.0745L120.13 58.6264C113.466 50.1873 113.458 50.1781 112.583 50.1781H111.707V60.4658ZM143.172 55.1466C141.919 57.8794 140.87 60.1677 140.84 60.232C140.81 60.2963 141.203 60.3372 141.712 60.3227L142.639 60.2965L144.398 56.4066C145.366 54.2673 146.209 52.5195 146.273 52.5228C146.336 52.5263 147.155 54.2528 148.092 56.3596L149.795 60.1902L150.8 60.2713C151.352 60.3159 151.778 60.2865 151.746 60.2061C151.714 60.1256 150.661 57.8364 149.406 55.119L147.124 50.1781H146.287H145.45L143.172 55.1466ZM163.786 60.4518V70.7535H164.705H165.624L165.684 62.1133L165.745 53.473L172.543 62.1102C178.967 70.2726 179.382 70.7477 180.09 70.7505L180.838 70.7535V60.4658V50.1781H179.917H178.995V58.5953C178.995 63.2248 178.917 67.0062 178.822 66.9985C178.727 66.9908 175.694 63.2295 172.082 58.6398C165.716 50.5511 165.488 50.2927 164.65 50.2226L163.786 50.1498V60.4518ZM214.252 60.4658V70.7535H221.626H229V69.8183V68.883H222.548H216.095V65.146V61.4092L221.799 61.3466L227.502 61.2842L227.574 60.4074L227.645 59.5306H221.87H216.095V55.7896V52.0486H222.433H228.77V51.1134V50.1781H221.511H214.252V60.4658ZM96.8644 52.4987C103.418 55.5773 103.359 65.4977 96.769 68.6066C94.8921 69.4921 92.113 69.4921 90.2361 68.6066C88.4094 67.7448 86.9604 66.3074 86.0709 64.4745C85.3697 63.0298 85.322 62.7742 85.322 60.471C85.322 58.2956 85.393 57.8572 85.935 56.6839C87.9615 52.2981 92.6308 50.5099 96.8644 52.4987ZM138.568 64.9667C138.148 65.8989 137.38 67.5879 136.862 68.72L135.922 70.7783L136.956 70.7074L137.991 70.6366L139.206 67.9478L140.421 65.2589H146.235H152.049L153.27 67.9478L154.491 70.6366L155.563 70.7077L156.634 70.7788L155.974 69.3048C155.612 68.4942 154.842 66.8049 154.264 65.5512L153.213 63.2716H146.273H139.333L138.568 64.9667Z" fill="#EBEBEB"/>
</svg>
