<svg width="289" height="120" viewBox="0 0 289 120" fill="none" xmlns="http://www.w3.org/2000/svg">
<path d="M93.2716 40.3338H49.998V80.6661L93.2716 40.3338Z" fill="#BABBBB"/>
<path d="M71.6319 40.3338H49.998V60.5093L71.6319 40.3338Z" fill="#28282B"/>
<path d="M153.7 49.0879L148.051 71.9037H158.031L163.675 49.0879H153.7Z" fill="#EBEBEB"/>
<path d="M130.904 62.312H128.615L132.305 55.73L133.502 62.312H130.904ZM129.484 49.0861L116.648 71.9008H123.249L125.38 68.0979H134.543L135.226 71.9008H144.969L140.828 49.0861H129.484Z" fill="#EBEBEB"/>
<path d="M199.278 49.0879L193.645 71.9037H203.623L209.258 49.0879H199.278Z" fill="#EBEBEB"/>
<path d="M194.819 49.0879H184.593L176.032 56.5511L177.901 49.0879H168.335L162.701 71.9037H172.237L174.185 64.0272L179.284 71.9037H190.826L182.277 59.9548L194.819 49.0879Z" fill="#EBEBEB"/>
<path d="M108.816 59.4564C108.816 59.4564 108.168 66.8671 101.917 66.8671H98.3805L101.495 54.561H104.705C105.854 54.568 109.178 54.8692 108.816 59.4564ZM108.31 49.0984L105.729 49.0902H93.2412L87.6074 71.8967H100.007L104.913 71.9037C111.82 71.9037 118.617 66.7095 118.617 58.7537C118.617 49.3925 108.31 49.0984 108.31 49.0984Z" fill="#EBEBEB"/>
<path d="M233.092 49.0844L229.764 62.5192L225.329 49.0844H214.23L208.592 71.9037H215.493L218.854 58.351L223.302 71.9037H234.354L240 49.0844H233.092Z" fill="#EBEBEB"/>
</svg>
