<svg width="289" height="120" viewBox="0 0 289 120" fill="none" xmlns="http://www.w3.org/2000/svg">
<g clip-path="url(#clip0_111_2417)">
<path d="M68.7774 40.1084C67.9616 40.21 66.4052 40.3659 65.2945 40.4812C64.2044 40.5964 63.0594 40.7727 62.7646 40.8947C62.4698 40.9896 61.9761 41.0912 61.6744 41.0912C61.1191 41.0912 59.3022 41.62 59.0211 41.8708C58.9388 41.9521 59.0828 42.4402 59.3571 42.9689C59.6176 43.4976 60.1524 44.6093 60.5637 45.4295L61.2768 46.9547H62.2092C62.7234 46.9547 63.4982 46.8598 63.9301 46.7581C65.3151 46.4259 70.752 45.9786 73.6042 45.9786C79.3223 45.9786 86.4047 46.7581 90.2647 47.8562C91.9239 48.3239 91.7868 48.4256 93.0141 45.7413C94.0836 43.3959 94.0631 43.3349 92.4176 42.691C89.5654 41.5929 85.5545 40.793 80.3507 40.2846C77.2654 40.0135 70.6766 39.8982 68.7774 40.1084ZM134.261 43.3214C132.759 43.579 131.395 43.9653 130.504 44.4534C127.062 46.2904 124.566 49.422 123.819 52.9198C123.305 55.2651 123.325 56.187 123.935 59.1763C124.532 62.0097 127.652 65.7108 130.744 67.236C132.307 68.0019 135.036 68.6662 136.64 68.6662C138.066 68.6662 140.699 68.0765 141.981 67.4732C146.41 65.399 149.262 61.4675 149.598 56.9665C149.914 52.7842 148.885 50.005 145.862 47.0496C143.469 44.7042 141.33 43.6264 138.244 43.2536C136.318 43.0028 136.235 43.0028 134.261 43.3214ZM138.08 47.9579C139.958 48.229 141.522 49.0696 142.865 50.5202C144.525 52.2826 144.826 53.0621 144.826 55.7599C144.847 57.8748 144.806 58.0646 144.25 59.1831C141.7 64.2128 135.269 65.5007 131.052 61.8403C129.27 60.2744 128.125 57.9087 128.125 55.7599C128.125 53.4688 129.372 51.0489 131.272 49.639C132.615 48.6222 133.603 48.1883 135.049 47.9579C136.571 47.7206 136.496 47.7206 138.08 47.9579ZM164.03 43.3417C163.16 43.4773 162.193 43.6942 161.857 43.8298C159.005 44.9618 156.873 46.6293 155.371 48.873C154.281 50.4795 153.924 51.32 153.554 53.096C152.745 56.9326 153.636 60.8032 156.009 63.6976C160.561 69.2899 168.549 70.2727 174.15 65.9074C175.22 65.0668 176.803 63.4061 176.803 63.1079C176.803 62.9926 174.171 61.2302 173.423 60.8167C173.108 60.6608 172.827 60.7964 171.84 61.6166C170.434 62.7689 169.783 63.1417 168.295 63.6095C164.298 64.8838 159.492 62.2809 158.326 58.2138C157.812 56.3971 157.771 55.6922 158.127 54.1873C159.115 49.8626 163.05 47.2665 167.527 47.9511C169.269 48.2087 170.77 48.9679 172.1 50.2422L173.033 51.1438L174.733 49.9914C175.686 49.3475 176.536 48.7171 176.632 48.5815C176.79 48.4053 176.433 47.9579 175.384 46.9004C173.19 44.711 171.367 43.7891 168.206 43.3214C166.108 43.0028 166.094 43.0028 164.03 43.3417ZM103.038 43.5925C102.839 43.7281 102.798 46.3107 102.839 55.8752L102.901 67.9816H107.453L107.549 62.796L107.645 57.6105L112.492 57.5156L117.347 57.4207L117.408 55.116L117.47 52.8249H112.842C109.441 52.8249 108.132 52.7638 107.899 52.5673C107.604 52.3707 107.563 52.0385 107.604 50.2761L107.666 48.2222L115.084 48.1273L122.503 48.0324L122.564 45.8972C122.605 44.311 122.544 43.7078 122.365 43.5925C122.016 43.3959 103.381 43.3959 103.038 43.5925ZM190.482 43.5722C190.344 43.6332 189.769 44.6093 189.234 45.7413C188.109 48.046 186.957 50.4524 185.099 54.289C182.727 59.1763 181.678 61.3522 180.705 63.3858C180.17 64.5178 179.477 65.9481 179.141 66.5717C178.826 67.175 178.566 67.785 178.566 67.8799C178.566 67.9952 179.573 68.0765 181.116 68.0765H183.687L184.338 66.6666C184.695 65.9006 185.271 64.7279 185.607 64.084L186.217 62.8909L192.669 62.8299L199.12 62.7893L200.128 64.8838C200.663 66.0565 201.239 67.2089 201.376 67.4868C201.616 67.9545 201.691 67.9748 204.146 68.0358C206.066 68.0765 206.655 68.0358 206.655 67.8393C206.655 67.7037 206.361 66.9784 205.983 66.2192C205.606 65.4736 204.756 63.6976 204.084 62.308C203.412 60.8981 202.425 58.8848 201.911 57.8071C201.397 56.7293 200.485 54.872 199.929 53.6993C198.524 50.7845 196.885 47.402 195.912 45.3888C195.48 44.4669 195.02 43.6671 194.904 43.5925C194.678 43.4163 190.879 43.4163 190.482 43.5722ZM193.06 50.2219C193.258 50.3981 193.416 50.6151 193.416 50.71C193.416 50.8049 193.889 51.8623 194.486 53.0757C196.467 57.1631 196.625 57.5359 196.501 57.8071C196.344 58.2205 188.905 58.2341 188.747 57.8477C188.685 57.6918 188.966 56.9665 189.343 56.2277C189.721 55.4888 190.571 53.7603 191.222 52.3775C191.894 51.0082 192.49 49.8965 192.566 49.8965C192.621 49.8898 192.861 50.0253 193.06 50.2219ZM210.488 43.5518C210.289 43.6467 210.227 46.2904 210.227 55.8752V68.0833L220.08 68.0426L229.911 67.9816V63.6772L222.555 63.5824C217.845 63.5213 215.116 63.4061 214.999 63.2909C214.862 63.1553 214.759 59.7525 214.739 53.3129L214.677 43.5315L212.696 43.4908C211.612 43.4773 210.604 43.5112 210.488 43.5518ZM226.847 45.6871C226.847 46.2768 226.943 46.7649 227.046 46.7649C227.162 46.7649 227.244 46.67 227.244 46.5683C227.244 46.2565 227.779 46.331 227.916 46.6835C227.978 46.8394 228.136 46.9208 228.232 46.8598C228.389 46.7649 228.369 46.6428 228.211 46.4463C228.033 46.2294 228.033 46.0328 228.232 45.6057C228.472 45.016 228.348 44.5076 228.012 44.7042C227.916 44.7855 227.834 44.9957 227.834 45.2126C227.834 45.4092 227.697 45.5854 227.539 45.5854C227.361 45.5854 227.244 45.4092 227.244 45.0973C227.244 44.8262 227.162 44.6093 227.046 44.6093C226.943 44.6093 226.847 45.0973 226.847 45.6871Z" fill="#EBEBEB"/>
<path d="M75.0097 47.463C74.2555 47.7341 73.4054 48.0324 73.1311 48.1273C72.8569 48.2086 72.1644 48.5204 71.609 48.7916C71.0331 49.0627 70.4846 49.3 70.3818 49.3C70.2995 49.3 69.9636 49.4966 69.6893 49.7135C69.038 50.2219 69.2711 50.4794 70.4435 50.4794C71.2182 50.4794 73.0557 50.7912 75.9627 51.4013C77.3888 51.6928 77.5671 51.6928 78.1361 51.4216C79.7199 50.6218 85.3145 48.7238 86.0893 48.7238C86.6035 48.7238 87.0766 48.412 86.8229 48.2764C86.5487 48.1002 83.244 47.5918 80.8512 47.3749C76.4152 46.9343 76.4906 46.9343 75.0097 47.463ZM67.1525 51.3742C67.0565 51.4555 66.9948 51.8826 66.9948 52.3164C66.9948 52.7638 66.8988 53.6857 66.796 54.3703C66.6383 55.2515 66.6383 55.6785 66.796 55.8548C66.9126 56.0107 67.6667 56.1666 68.5375 56.2479C72.6306 56.5598 77.6151 57.6375 83.2166 59.3796C85.3763 60.0439 85.9864 60.0439 85.9864 59.3186C85.9864 59.122 86.0687 58.8916 86.1647 58.7695C86.2607 58.6747 86.5829 58.0239 86.8778 57.3596C87.4742 55.9294 87.392 55.7192 86.2264 55.3667C85.8288 55.2515 85.1774 55.0346 84.8003 54.8787C83.1 54.2347 79.1646 53.1569 76.1958 52.5537C75.3251 52.3571 74.2144 52.1266 73.7207 52.0249C71.6845 51.5911 67.3514 51.1641 67.1525 51.3742ZM76.1547 59.827C75.4828 60.3354 74.8314 60.9997 74.6875 61.2912C74.3927 61.9961 74.5915 64.7346 75.0028 65.5345C75.3799 66.2598 75.6953 66.2801 76.1478 65.5752C76.9226 64.4635 81.194 61.664 82.1813 61.6233C82.4555 61.6233 83.9982 60.8777 83.9982 60.7624C83.9982 60.6065 78.143 58.8848 77.6493 58.8848C77.4985 58.8916 76.8266 59.3186 76.1547 59.827Z" fill="#EBEBEB"/>
<path d="M71.6007 67.0873C71.7379 65.4605 71.8956 64.8911 72.6703 63.6032C73.2257 62.661 73.5205 62.7627 73.5136 63.8947C73.5136 64.5996 74.2884 66.6128 74.9808 67.7652C75.9681 69.3717 77.3942 70.5647 79.5128 71.5815C80.2395 71.934 80.836 72.3 80.836 72.3814C80.836 72.5169 80.0476 74.3404 78.9986 76.5298C78.7655 77.0585 78.4844 77.472 78.3678 77.472C77.9084 77.472 75.9133 75.9469 74.5078 74.5573C72.1972 72.2526 71.3814 70.1377 71.6007 67.0873Z" fill="#EBEBEB"/>
</g>
<defs>
<clipPath id="clip0_111_2417">
<rect width="171" height="40" fill="white" transform="translate(59 40)"/>
</clipPath>
</defs>
</svg>
