<svg width="289" height="120" viewBox="0 0 289 120" fill="none" xmlns="http://www.w3.org/2000/svg">
<path d="M106.752 47C96.8239 47 93 52.1055 93 60.4856C93 68.183 97.4182 74 107.799 74C113.292 74 117.422 72.3898 118.731 71.6321V59.3594H106.287V62.507H112.858V69.8417C112.304 70.2968 110.62 70.8524 107.799 70.8524C100.743 70.8524 99.4836 65.2641 99.4836 60.4856C99.4836 55.0255 100.755 50.1476 106.752 50.1476C110.532 50.1476 111.782 52.4381 111.782 54.3348H118.353C118.353 50.0494 114.865 47 106.752 47ZM127.075 47.5775V73.7401H132.978V47.5775H127.075ZM141.874 47.5775V73.7401H147.777V62.507H150.103C155.495 62.507 156.191 63.9092 157.4 68.0802L159.029 73.7401H165.018L162.895 66.3765C162.089 63.6078 161.541 61.368 156.703 60.5722V60.5144C160.281 59.8699 163.593 58.5831 163.593 54.4503C163.593 49.331 158.98 47.5775 152.429 47.5775H141.874ZM179.352 47.5775L168.274 73.7401H174.002L176.822 66.6364H188.452L191.272 73.7401H197L185.981 47.5775H179.352ZM147.777 50.7251H152.429C155.755 50.7251 157.604 52.2106 157.604 54.9412C157.604 58.8084 153.782 59.3594 150.103 59.3594H147.777V50.7251ZM182.579 51.7936H182.695L187.144 63.2578H178.131L182.579 51.7936Z" fill="#EBEBEB"/>
</svg>
