<svg width="289" height="120" viewBox="0 0 289 120" fill="none" xmlns="http://www.w3.org/2000/svg">
<path fill-rule="evenodd" clip-rule="evenodd" d="M94.7257 49.7957V52.4835H111.563V63.6106C111.563 64.7492 111.329 69.0014 104.669 69.0014C97.7127 69.0014 97.3836 64.5863 97.3708 63.6557V61.8382H94.7225V68.4496C94.7225 69.1133 94.7949 69.8121 95.2047 70.2969C95.754 70.946 96.3764 71.2083 97.1896 71.2083H113.725C113.725 71.2083 114.858 71.2348 115.596 70.1677C116.143 69.3769 116.086 68.4152 116.086 68.4152V49.7957H94.7225H94.7257ZM195.274 49.7957V52.4835H178.436V63.6106C178.436 64.7492 178.671 69.0014 185.331 69.0014C192.287 69.0014 192.616 64.5863 192.629 63.6557V61.8382H195.279V68.449C195.279 69.1133 195.206 69.8107 194.796 70.2969C194.246 70.946 193.625 71.2083 192.811 71.2083H176.275C176.275 71.2083 175.143 71.2348 174.405 70.1671C173.858 69.3763 173.915 68.4145 173.915 68.4145V49.7957H195.279H195.274ZM145.511 49.7957V71.2083H150.038V57.3602H152.193L163.93 71.2083H171.183V49.7957H166.655V66.7594H164.277L150.698 49.7957H145.511ZM135.539 47.0132L151.971 47L163.93 62.0217V47.0113H197.999V55.2653H181.172V63.6537C181.172 65.295 182.432 66.1759 185.466 66.1759C189.387 66.1759 189.897 64.5843 189.897 63.6901V61.8363H186.242V59.0584H198V68.6828C198 70.0565 197.616 71.3368 196.55 72.4382C195.245 73.792 193.888 73.9907 192.834 73.9907L176.357 73.9974C175.302 73.9974 173.945 73.7987 172.641 72.4462L172.546 72.3468V73.9894H162.723L152.763 62.2602V73.9894H144.153V72.3124C144.114 72.3587 144.08 72.3938 144.039 72.4349C142.735 73.7887 141.378 73.9868 140.324 73.9868L121.259 74C120.204 74 118.847 73.8013 117.543 72.4482L117.452 72.3488L117.358 72.4482C116.054 73.8013 114.696 74 113.643 74L97.1659 73.9934C96.1113 73.9934 94.7539 73.7947 93.4503 72.4422C92.3829 71.3394 92 70.0591 92 68.6854V59.0617H100.103V63.6928C100.103 64.5869 100.613 66.1785 104.534 66.1785C107.567 66.1785 108.828 65.2989 108.828 63.6563V55.2679H92.0013V47.0146H126.062L126.069 63.6888C126.069 64.583 126.876 66.1752 130.797 66.1752C134.721 66.1752 135.537 64.583 135.537 63.6524V47.0146L135.539 47.0132ZM138.265 63.6067C138.265 64.7452 137.736 68.9974 130.802 68.9974C123.846 68.9974 123.349 64.5816 123.337 63.651V49.7957H118.816V68.7311C118.816 69.1736 118.828 69.714 119.62 70.5347C120.325 71.2639 121.455 71.2083 121.455 71.2083H140.326C140.326 71.2083 141.346 71.2613 142.102 70.4559C142.801 69.7134 142.793 68.4152 142.793 68.4152V49.7911H138.265V63.608" fill="#EBEBEB"/>
</svg>
