<svg width="289" height="120" viewBox="0 0 289 120" fill="none" xmlns="http://www.w3.org/2000/svg">
<path d="M140.648 74.9063H148.78L158.167 45.2139H150.796L144.715 64.5383L138.633 45.2139H131.27L140.648 74.9063Z" fill="#EBEBEB"/>
<path d="M182 68.3989V63.3902H175.047V68.3989H166.435V51.7338H175.047V56.7341H182V50.4406H181.994C181.994 49.7874 181.949 49.157 181.858 48.5338C181.611 46.7573 180.183 45.3768 178.436 45.1172C177.867 45.0371 177.298 45 176.712 45H164.766C164.18 45 163.607 45.0371 163.045 45.1172C161.295 45.3768 159.866 46.7573 159.615 48.5338C159.529 49.157 159.48 49.7874 159.48 50.4406V69.6897C159.48 70.338 159.529 70.9697 159.615 71.5917C159.866 73.3742 161.295 74.7403 163.045 75.0059C163.607 75.086 164.18 75.1231 164.766 75.1231H176.712C177.298 75.1231 177.867 75.086 178.436 75.0059C180.183 74.7403 181.611 73.3742 181.858 71.5917C181.949 70.9697 181.994 70.338 181.994 69.6897L182 69.6861V68.3989Z" fill="#EBEBEB"/>
<path d="M106.805 68.3994V62.7447H113.753V68.3994H122.374V45.2158H129.323V69.6902C129.323 70.3385 129.271 70.9702 129.186 71.5922C128.934 73.3747 127.504 74.7408 125.756 75.0064C125.201 75.0865 124.621 75.1236 124.033 75.1236H112.088C111.502 75.1236 110.93 75.0865 110.368 75.0064C108.627 74.7408 107.194 73.3747 106.941 71.5922C106.85 70.9702 106.809 70.3385 106.809 69.6902L106.805 69.6866V68.3994Z" fill="#EBEBEB"/>
</svg>
